<?xml version="1.0" encoding="UTF-8" standalone="no"?>
<svg width="82px" height="82px" viewBox="0 0 82 82" version="1.1" xmlns="http://www.w3.org/2000/svg" xmlns:xlink="http://www.w3.org/1999/xlink">
    <!-- Generator: Sketch 39 (31667) - http://www.bohemiancoding.com/sketch -->
    <title>Page 1</title>
    <desc>Created with Sketch.</desc>
    <defs></defs>
    <g id="Page-1" stroke="none" stroke-width="1" fill="none" fill-rule="evenodd">
        <g id="Desktop-HD-Copy" transform="translate(-1062.000000, -4844.000000)" stroke-width="3">
            <g id="groupe-4" transform="translate(806.000000, 4710.000000)">
                <g id="Group-9-Copy-5" transform="translate(212.000000, 136.000000)">
                    <g id="Page-1" transform="translate(46.000000, 0.000000)">
                        <path d="M43.3471049,38.7473561 C43.3471049,40.8232341 41.6640805,42.5062585 39.5882024,42.5062585 C37.5123244,42.5062585 35.8293,40.8232341 35.8293,38.7473561 C35.8293,36.671478 37.5123244,34.9884537 39.5882024,34.9884537 C41.6640805,34.9884537 43.3471049,36.671478 43.3471049,38.7473561 L43.3471049,38.7473561 Z" id="Stroke-1" stroke="#3387FB"></path>
                        <path d="M60.5668415,38.9664854 C60.5668415,50.7026317 51.0527439,60.2164122 39.3169146,60.2164122 C27.5807683,60.2164122 18.0666707,50.7026317 18.0666707,38.9664854 C18.0666707,27.230339 27.5807683,17.7165585 39.3169146,17.7165585 C51.0527439,17.7165585 60.5668415,27.230339 60.5668415,38.9664854 L60.5668415,38.9664854 Z" id="Stroke-3" stroke="#939393"></path>
                        <path d="M70.7195244,38.5729341 C70.7195244,55.9368122 56.643378,70.0129585 39.2795,70.0129585 C21.915622,70.0129585 7.83947561,55.9368122 7.83947561,38.5729341 C7.83947561,21.2090561 21.915622,7.13290976 39.2795,7.13290976 C56.643378,7.13290976 70.7195244,21.2090561 70.7195244,38.5729341 L70.7195244,38.5729341 Z" id="Stroke-5" stroke="#939393"></path>
                        <path d="M39.2795,-3.17073172e-05 L39.3416892,24.2506756" id="Stroke-7" stroke="#06BD91" stroke-linecap="round" stroke-linejoin="round"></path>
                        <path d="M77.7244,39.1115635 L54.0063756,38.7473878" id="Stroke-9" stroke="#06BD91" stroke-linecap="round" stroke-linejoin="round"></path>
                        <path d="M0,38 L25.0487805,38" id="Stroke-11" stroke="#06BD91" stroke-linecap="round" stroke-linejoin="round"></path>
                        <path d="M39.2795,77.8807805 L39.3416892,52.6395366" id="Stroke-13" stroke="#06BD91" stroke-linecap="round" stroke-linejoin="round"></path>
                    </g>
                </g>
            </g>
        </g>
    </g>
</svg>