<?xml version="1.0" encoding="UTF-8" standalone="no"?>
<svg width="33px" height="33px" viewBox="0 0 33 33" version="1.1" xmlns="http://www.w3.org/2000/svg" xmlns:xlink="http://www.w3.org/1999/xlink">
    <!-- Generator: Sketch 3.8.1 (29687) - http://www.bohemiancoding.com/sketch -->
    <title>back-and-forth</title>
    <desc>Created with Sketch.</desc>
    <defs></defs>
    <g id="Page-1" stroke="none" stroke-width="1" fill="none" fill-rule="evenodd">
        <g id="Desktop-HD-Copy" transform="translate(-530.000000, -7118.000000)">
            <g id="07" transform="translate(169.000000, 6796.000000)">
                <g id="4" transform="translate(361.000000, 317.000000)">
                    <g id="back-and-forth" transform="translate(0.000000, 5.000000)">
                        <path d="M16.5,33 C25.6126984,33 33,25.6126984 33,16.5 C33,7.38730163 25.6126984,0 16.5,0 C7.38730163,0 0,7.38730163 0,16.5 C0,25.6126984 7.38730163,33 16.5,33 Z" id="Oval-4" fill="#EEEEEF"></path>
                        <path d="M26.9882583,10.6718036 L12.3768141,10.6718036 L14.2314873,8.77261723 C14.4225988,8.57690982 14.52782,8.3167014 14.52782,8.03995992 C14.52782,7.76321844 14.4225558,7.50301002 14.2314012,7.30730261 L13.2572016,6.30980762 C12.8627515,5.90591583 12.2209198,5.90591583 11.8264697,6.3098517 L6.09458708,12.179487 C6.03401174,12.2414749 6,12.3255952 6,12.4132866 C6,12.500978 6.03401174,12.5850982 6.09458708,12.6470862 L11.8265127,18.5166774 C12.0237808,18.7186894 12.2828297,18.8196513 12.5419217,18.8196513 C12.8009706,18.8196513 13.0600626,18.7186453 13.2572446,18.5167214 L14.2314442,17.5192265 C14.4225558,17.3235631 14.52782,17.0633547 14.527863,16.7865691 C14.527863,16.5098277 14.4226419,16.2496192 14.2315303,16.0539118 L12.3768571,14.1546814 L26.9882583,14.1546814 C27.546137,14.1546814 28,13.6899038 28,13.1186092 L28,11.7077876 C28,11.1365812 27.546137,10.6718036 26.9882583,10.6718036 L26.9882583,10.6718036 Z M27.3542074,13.1186974 C27.3542074,13.3253387 27.190047,13.4934469 26.9882583,13.4934469 L11.5972564,13.4934469 C11.4666341,13.4934469 11.3489276,13.573996 11.2989432,13.6975752 C11.2489589,13.8211543 11.2765988,13.9633387 11.3689472,14.0579078 L13.7748689,16.5215992 C13.8439687,16.5923607 13.8820705,16.686489 13.8820705,16.7865691 C13.8820705,16.8866493 13.8439687,16.9807776 13.7748689,17.0515832 L12.8006693,18.0490782 C12.6579922,18.1951423 12.4258513,18.1951423 12.2831742,18.0490782 L6.77955773,12.4132866 L12.2831311,6.77749499 C12.4258082,6.63138677 12.6579491,6.63143086 12.8006262,6.77749499 L13.7748258,7.77498998 C13.8439256,7.8457515 13.8820274,7.93987976 13.8820274,8.04000401 C13.8820274,8.14012826 13.8439687,8.23421242 13.7748258,8.30501804 L11.3689041,10.7687094 C11.2765558,10.8632786 11.2489159,11.005507 11.2989002,11.1290421 C11.3488845,11.2526212 11.4666341,11.3331703 11.5972133,11.3331703 L26.9882583,11.3331703 C27.190047,11.3331703 27.3542074,11.5012786 27.3542074,11.7079198 L27.3542074,13.1186974 L27.3542074,13.1186974 Z" id="Shape" fill="#EB4E4E"></path>
                        <path d="M22.1735303,15.4833226 C21.7790802,15.0794309 21.1372485,15.0793868 20.7427984,15.4833226 L19.7685988,16.4807735 C19.5774873,16.6764369 19.4722231,16.9366453 19.4722231,17.2134309 C19.4722231,17.4901723 19.5774442,17.7503808 19.7685558,17.9460882 L21.623229,19.8453186 L7.01174168,19.8453186 C6.45386301,19.8453186 6,20.3100962 6,20.8813908 L6,22.2922124 C6,22.863507 6.45386301,23.3282846 7.01174168,23.3282846 L21.6231429,23.3282846 L19.7684697,25.2274709 C19.5774012,25.4231784 19.472137,25.6833868 19.47218,25.9601283 C19.47218,26.2368697 19.5774442,26.4970782 19.7685558,26.6927415 L20.7427554,27.6902365 C20.9399804,27.8922044 21.1990294,27.9931663 21.4581213,27.9931663 C21.7172133,27.9931663 21.9763053,27.8921603 22.1735303,27.6901924 L27.9054129,21.8206012 C27.9659883,21.7586132 28,21.674493 28,21.5868016 C28,21.4991102 27.9659883,21.41499 27.9054129,21.353002 L22.1735303,15.4833226 L22.1735303,15.4833226 Z M21.7169119,27.222505 C21.5742348,27.3686132 21.3420939,27.3686132 21.1993738,27.222505 L20.2251742,26.22501 C20.1560744,26.1542485 20.1179726,26.0601202 20.1179726,25.9600401 C20.1179726,25.8599158 20.1560313,25.7657876 20.2251311,25.6950261 L22.6310528,23.2313788 C22.7234012,23.1368096 22.7510411,22.9945812 22.7010568,22.8710461 C22.6510724,22.7474669 22.5333229,22.6669178 22.4027436,22.6669178 L7.01174168,22.6669178 C6.80995303,22.6669178 6.64579256,22.4988096 6.64579256,22.2921683 L6.64579256,20.8813467 C6.64579256,20.6747054 6.80995303,20.5065972 7.01174168,20.5065972 L22.4027436,20.5065972 C22.5333659,20.5065972 22.6510724,20.4260481 22.7010568,20.3024689 C22.7510411,20.1788898 22.7234012,20.0367054 22.6310528,19.9421363 L20.2251311,17.4784449 C20.1560313,17.4076834 20.1179295,17.3135551 20.1179726,17.2134309 C20.1179726,17.1133066 20.1560313,17.0192224 20.2251742,16.9484168 L21.1993738,15.9509218 C21.3420509,15.8048577 21.5742348,15.8048577 21.7169119,15.9509218 L27.2204853,21.5867134 L21.7169119,27.222505 L21.7169119,27.222505 Z" id="Shape" fill="#EB4E4E"></path>
                    </g>
                </g>
            </g>
        </g>
    </g>
</svg>