<?xml version="1.0" encoding="UTF-8" standalone="no"?>
<svg width="150px" height="70px" viewBox="0 0 150 70" version="1.1" xmlns="http://www.w3.org/2000/svg" xmlns:xlink="http://www.w3.org/1999/xlink">
    <!-- Generator: Sketch 39 (31667) - http://www.bohemiancoding.com/sketch -->
    <title>Page 1</title>
    <desc>Created with Sketch.</desc>
    <defs>
        <polygon id="path-1" points="67.4744047 0.124262443 0.239068499 0.124262443 0.239068499 67.2133683 67.4744047 67.2133683 67.4744047 0.124262443"></polygon>
    </defs>
    <g id="Page-1" stroke="none" stroke-width="1" fill="none" fill-rule="evenodd">
        <g id="Desktop-HD-Copy" transform="translate(-1032.000000, -5177.000000)">
            <g id="groupe-4" transform="translate(806.000000, 4710.000000)">
                <g id="Group-9-Copy-7" transform="translate(215.000000, 467.000000)">
                    <g id="Page-1" transform="translate(12.000000, 0.000000)">
                        <path d="M100.488026,66.6208425 C100.068432,66.6208425 99.6757471,66.4594262 99.3825632,66.1665665 L36.833633,3.75434932 C36.2241108,3.14552579 36.2241108,2.15548507 36.833633,1.54697376 C37.1274427,1.25411403 37.5204406,1.09269774 37.9400347,1.09269774 C38.3593159,1.09269774 38.7520008,1.25411403 39.0458106,1.54697376 L101.594115,63.9595032 C101.887925,64.2523629 102.049379,64.6445077 102.049379,65.063191 C102.049379,65.4818742 101.887925,65.8733946 101.594115,66.1665665 C101.300618,66.4594262 100.907933,66.6208425 100.488026,66.6208425" id="Fill-1" fill="#FFFFFF"></path>
                        <g id="Group-5" transform="translate(35.357294, 0.187955)">
                            <mask id="mask-2" fill="white">
                                <use xlink:href="#path-1"></use>
                            </mask>
                            <g id="Clip-4"></g>
                            <path d="M2.58258436,0.124137557 C1.98119746,0.124137557 1.37981057,0.351743891 0.923607611,0.806956561 L0.923607611,0.806956561 C0.0108887949,1.71769412 0.0108887949,3.20759457 0.923607611,4.11801991 L63.4719121,66.5305493 C63.928115,66.985762 64.5295019,67.2133683 65.1308888,67.2133683 C65.7322757,67.2133683 66.3336626,66.985762 66.7898655,66.5305493 C67.7025844,65.620124 67.7025844,64.1302235 66.7898655,63.2197982 L4.2415611,0.806956561 C3.78535814,0.351743891 3.18397125,0.124137557 2.58258436,0.124137557 M2.58258436,1.68522353 C2.70461395,1.68522353 2.93866047,1.71457195 3.1354723,1.91095656 L65.6837767,64.323486 C65.9835315,64.62259 65.9835315,65.1277575 65.6837767,65.4268615 C65.4869649,65.6229339 65.2529184,65.6522824 65.1308888,65.6522824 C65.0088592,65.6522824 64.7748127,65.6229339 64.5780008,65.4268615 L2.02969641,3.01401991 C1.83288457,2.81763529 1.8034723,2.58440905 1.8034723,2.46264434 C1.8034723,2.34087964 1.83288457,2.10734118 2.02969641,1.91095656 C2.22650825,1.71457195 2.46055476,1.68522353 2.58258436,1.68522353" id="Fill-3" fill="#939393" mask="url(#mask-2)"></path>
                        </g>
                        <path d="M47.7800008,66.2534566 C47.4861911,65.9602846 47.3247366,65.5687643 47.3247366,65.150081 C47.3247366,64.7310855 47.4861911,64.3392529 47.7800008,64.0463932 L110.328305,1.63355158 C110.622115,1.34100407 111.0148,1.17958778 111.434081,1.17958778 C111.853675,1.17958778 112.246673,1.34100407 112.540483,1.63355158 C113.150005,2.2420629 113.150005,3.23210362 112.540483,3.84092715 L49.9918655,66.2534566 C49.6983687,66.5460041 49.3056837,66.7074204 48.8860896,66.7074204 C48.4661827,66.7074204 48.0734977,66.5460041 47.7800008,66.2534566 Z" id="Fill-6" fill="#FFFFFF"></path>
                        <path d="M111.434238,0.398857466 C110.832851,0.398857466 110.231464,0.626463801 109.775261,1.08167647 L47.2269564,63.4942059 C46.3142376,64.4049434 46.3142376,65.8948439 47.2269564,66.8052692 C47.6831594,67.2604819 48.2845463,67.4880882 48.8859332,67.4880882 C49.4873201,67.4880882 50.088707,67.2604819 50.5449099,66.8052692 L113.093214,4.39273982 C114.005933,3.48231448 114.005933,1.99241403 113.093214,1.08167647 C112.637011,0.626463801 112.035625,0.398857466 111.434238,0.398857466 M111.434238,1.95994344 C111.556267,1.95994344 111.790314,1.98929186 111.987126,2.18567647 C112.286567,2.48478054 112.286567,2.98994796 111.987126,3.28873982 L49.4388211,65.7012692 C49.2420093,65.8976538 49.0079628,65.9270023 48.8859332,65.9270023 C48.7639036,65.9270023 48.5298571,65.8976538 48.3330452,65.7012692 C48.0332905,65.4024774 48.0332905,64.89731 48.3330452,64.5982059 L110.88135,2.18567647 C111.078162,1.98929186 111.312208,1.95994344 111.434238,1.95994344" id="Fill-8" fill="#939393"></path>
                        <polygon id="Fill-10" fill="#FFFFFF" points="0.156448203 39.0648964 28.8715772 67.9871362 64.7955264 32.5167652 36.2684482 3.79621765"></polygon>
                        <polyline id="Stroke-12" stroke="#939393" stroke-width="2" stroke-linecap="round" stroke-linejoin="round" points="0.156448203 39.0648964 28.8715772 67.9871362 64.7955264 32.5167652 36.2684482 3.79621765 0.156448203 39.0648964"></polyline>
                        <polygon id="Fill-14" fill="#FFFFFF" points="147.892301 40.0828181 112.330686 4.26120271 83.518559 33.0872796 119.281054 68.7196914"></polygon>
                        <polygon id="Stroke-16" stroke="#939393" stroke-width="2" stroke-linecap="round" stroke-linejoin="round" points="147.892301 40.0828181 112.330686 4.26120271 83.518559 33.0872796 119.281054 68.7196914"></polygon>
                        <polygon id="Fill-18" fill="#2ECA9C" points="1.06056237 39.0771041 36.1425074 4.46064706 45.3895349 13.7912579 10.3075899 48.4080271"></polygon>
                        <polygon id="Fill-20" fill="#2ECA9C" points="63.9285218 32.5175145 28.8465767 67.1339715 19.5995493 57.8033606 54.6814943 23.1865914"></polygon>
                        <polygon id="Fill-22" fill="#FFFFFF" points="19.7379433 20.7372163 10.3867214 29.964171 19.5811822 39.2420172 28.9324042 30.0147502"></polygon>
                        <polygon id="Fill-24" fill="#FFFFFF" points="19.6870664 39.2522891 10.3477345 48.4676919 19.5947619 57.7986149 28.9340939 48.5832122"></polygon>
                        <polygon id="Fill-26" fill="#FFFFFF" points="38.1595941 57.8840376 47.5108161 48.6570828 38.3144778 39.3773633 28.9632558 48.6046303"></polygon>
                        <polygon id="Fill-28" fill="#2ECA9C" points="28.8804634 48.6671986 38.2316854 39.4402439 28.984345 30.1093208 19.6334359 39.3362756"></polygon>
                        <polygon id="Fill-30" fill="#FFFFFF" points="36.1424761 4.46052217 29.0697658 11.4685493 38.2876939 20.7698118 45.3895036 13.7914452"></polygon>
                        <polygon id="Fill-32" fill="#2ECA9C" points="45.3896288 13.7913516 38.2928254 20.8078086 47.6672017 30.1084466 54.6814004 23.1865914"></polygon>
                        <polygon id="Fill-34" fill="#FFFFFF" points="54.6813691 23.1866851 47.6671704 30.1085403 56.9720837 39.3817032 63.9283966 32.5176081"></polygon>
                        <polygon id="Fill-36" fill="#3387FB" points="103.374996 14.0899249 110.761855 21.4607484 100.931275 31.2699882 93.5444169 23.8988525"></polygon>
                        <polygon id="Fill-38" fill="#3387FB" points="119.687569 12.5543783 110.761886 21.460686 120.110292 30.7887991 128.984973 21.9333828"></polygon>
                        <polygon id="Fill-40" fill="#3387FB" points="100.931307 31.2699258 110.280651 40.5980389 101.121235 49.7375729 91.6780211 40.5037493"></polygon>
                        <polygon id="Fill-42" fill="#3387FB" points="119.628775 49.9263394 110.280682 40.597914 120.110323 30.7886742 129.458729 40.1167873"></polygon>
                        <polygon id="Fill-44" fill="#3387FB" points="119.293726 67.9304063 110.522614 59.1480489 119.763384 49.9264018 128.50477 58.6485014"></polygon>
                        <polygon id="Fill-46" fill="#3387FB" points="138.164008 48.9392023 129.458917 40.2523833 138.360194 31.3698041 147.034308 40.0834738"></polygon>
                    </g>
                </g>
            </g>
        </g>
    </g>
</svg>