<?xml version="1.0" encoding="UTF-8" standalone="no"?>
<svg width="61px" height="75px" viewBox="0 0 61 75" version="1.1" xmlns="http://www.w3.org/2000/svg" xmlns:xlink="http://www.w3.org/1999/xlink">
    <!-- Generator: Sketch 39 (31667) - http://www.bohemiancoding.com/sketch -->
    <title>Page 1</title>
    <desc>Created with Sketch.</desc>
    <defs></defs>
    <g id="Page-1" stroke="none" stroke-width="1" fill="none" fill-rule="evenodd">
        <g id="Desktop-HD-Copy" transform="translate(-866.000000, -5175.000000)">
            <g id="groupe-4" transform="translate(806.000000, 4710.000000)">
                <g id="Group-9-Copy-6" transform="translate(0.000000, 466.000000)">
                    <g id="Page-1" transform="translate(61.000000, 0.000000)">
                        <polygon id="Fill-1" fill="#FFFFFF" points="0 0.374400615 0 69.4991379 53.4202877 69.4991379 53.4202877 16.6662998 37.4737106 0.374400615"></polygon>
                        <polygon id="Stroke-2" stroke="#939393" stroke-width="2" stroke-linecap="round" stroke-linejoin="round" points="0 0.374400615 0 69.4991379 53.4202877 69.4991379 53.4202877 16.6662998 37.4737106 0.374400615"></polygon>
                        <polygon id="Fill-4" fill="#EBEBEB" points="37.470083 0.250351766 37.5051168 16.786692 53.5446203 16.6662246"></polygon>
                        <g id="Group-25" transform="translate(6.460128, 0.147516)">
                            <polygon id="Stroke-5" stroke="#939393" stroke-width="2" stroke-linecap="round" stroke-linejoin="round" points="31.0099552 0.102835569 31.044989 16.6391758 47.0844925 16.5187084"></polygon>
                            <path d="M28.0795419,17.5462877 L0.318136448,17.5522986 C0.196636352,17.5522986 0.0982436361,17.4528691 0.0979951696,17.3306486 L0.0977467031,15.6340871 C0.0977467031,15.5116161 0.196139419,15.4124371 0.317639515,15.4124371 L28.0790449,15.4064263 C28.200545,15.4064263 28.2991862,15.5056053 28.2991862,15.6280763 L28.2994347,17.3246377 C28.2994347,17.4468583 28.201042,17.5462877 28.0795419,17.5462877" id="Fill-7" fill="#EBEBEB"></path>
                            <path d="M37.399444,27.3308442 L0.318558841,27.3491272 C0.197058745,27.3491272 0.098666029,27.2499482 0.0984175626,27.1274772 L0.0976721632,25.4309157 C0.0976721632,25.3084447 0.196064879,25.2092658 0.317564975,25.2092658 L37.3984502,25.1909828 C37.5199503,25.1909828 37.618343,25.2901617 37.6185914,25.4126327 L37.6193368,27.1089438 C37.6193368,27.2314148 37.5209441,27.3308442 37.399444,27.3308442" id="Fill-9" fill="#EBEBEB"></path>
                            <path d="M34.7737748,32.2570837 L0.318683074,32.273864 C0.197182978,32.2741144 0.0985417958,32.1749355 0.0985417958,32.0524645 L0.0977963964,30.355903 C0.09754793,30.233432 0.195940646,30.134253 0.317440742,30.134253 L34.7727809,30.1172223 C34.894281,30.1172223 34.9926737,30.2164013 34.9929222,30.3388723 L34.9936676,32.0351833 C34.9936676,32.1576543 34.8952749,32.2570837 34.7737748,32.2570837" id="Fill-11" fill="#EBEBEB"></path>
                            <path d="M39.0046119,37.840409 L0.318633381,37.8594433 C0.197133285,37.8594433 0.0984921025,37.7602643 0.0984921025,37.6377933 L0.0977467031,35.9414823 C0.0974982367,35.8190113 0.196139419,35.7195819 0.317639515,35.7195819 L39.003618,35.7005475 C39.1251181,35.7005475 39.2235108,35.7997265 39.2237593,35.9221975 L39.2245047,37.6185085 C39.2245047,37.7409795 39.126112,37.840409 39.0046119,37.840409" id="Fill-13" fill="#EBEBEB"></path>
                            <path d="M28.6475113,43.9723742 L0.318608534,43.9861491 C0.197108438,43.9863996 0.0984672559,43.8872206 0.0984672559,43.7647496 L0.0977218565,42.0681881 C0.0977218565,41.9457171 0.196114572,41.8465381 0.317614669,41.8465381 L28.6465175,41.8325128 C28.7680176,41.8325128 28.8664103,41.9316918 28.8666587,42.0541628 L28.8674041,43.7504738 C28.8674041,43.8729448 28.7690114,43.9723742 28.6475113,43.9723742" id="Fill-15" fill="#EBEBEB"></path>
                            <path d="M39.9614065,50.7860196 L0.318583688,50.8055549 C0.197083592,50.8055549 0.0984424092,50.7063759 0.0984424092,50.5839049 L0.0976970099,48.8873434 C0.0976970099,48.7651229 0.196089726,48.6656935 0.317589822,48.6656935 L39.9604126,48.6461582 C40.0819127,48.6461582 40.1803054,48.7453372 40.1805539,48.8678082 L40.1812993,50.5641192 C40.1812993,50.6865902 40.0829066,50.7860196 39.9614065,50.7860196" id="Fill-17" fill="#EBEBEB"></path>
                            <path d="M37.2561783,57.5180928 L0.318658228,57.5361254 C0.197158132,57.5363758 0.0985169492,57.4369464 0.0985169492,57.3144754 L0.0977715498,55.6181644 C0.0975230833,55.4956934 0.196164266,55.3965144 0.317415895,55.3962639 L37.2551844,55.3782314 C37.3766845,55.3782314 37.4750772,55.4774104 37.4753257,55.5998814 L37.4760711,57.2961924 C37.4760711,57.4186634 37.3776784,57.5180928 37.2561783,57.5180928" id="Fill-19" fill="#EBEBEB"></path>
                            <path d="M52.1779554,59.4079281 C52.1779554,66.5034822 46.4716748,72.2553616 39.4323717,72.2553616 C32.3930686,72.2553616 26.686788,66.5034822 26.686788,59.4079281 C26.686788,52.312374 32.3930686,46.5604946 39.4323717,46.5604946 C46.4716748,46.5604946 52.1779554,52.312374 52.1779554,59.4079281" id="Fill-21" fill="#FFFFFF"></path>
                            <path d="M52.1779554,59.4079281 C52.1779554,66.5034822 46.4716748,72.2553616 39.4323717,72.2553616 C32.3930686,72.2553616 26.686788,66.5034822 26.686788,59.4079281 C26.686788,52.312374 32.3930686,46.5604946 39.4323717,46.5604946 C46.4716748,46.5604946 52.1779554,52.312374 52.1779554,59.4079281 L52.1779554,59.4079281 Z" id="Stroke-23" stroke="#939393" stroke-width="2" stroke-linecap="round" stroke-linejoin="round"></path>
                        </g>
                        <text id="!" fill="#2ECA9C" font-family="HiraMaruProN-W4, Hiragino Maru Gothic ProN" font-size="18.4993846" font-weight="normal">
                            <tspan x="43.0044444" y="67.112">!</tspan>
                        </text>
                    </g>
                </g>
            </g>
        </g>
    </g>
</svg>