<?xml version="1.0" encoding="UTF-8" standalone="no"?>
<svg width="56px" height="69px" viewBox="0 0 56 69" version="1.1" xmlns="http://www.w3.org/2000/svg" xmlns:xlink="http://www.w3.org/1999/xlink">
    <!-- Generator: Sketch 39 (31667) - http://www.bohemiancoding.com/sketch -->
    <title>Page 1</title>
    <desc>Created with Sketch.</desc>
    <defs></defs>
    <g id="Page-1" stroke="none" stroke-width="1" fill="none" fill-rule="evenodd">
        <g id="Desktop-HD-Copy" transform="translate(-1072.000000, -4277.000000)">
            <g id="Group-03" transform="translate(804.000000, 3810.000000)">
                <g id="Group-9-Copy-9" transform="translate(214.000000, 468.000000)">
                    <g id="Page-1" transform="translate(55.000000, 0.000000)">
                        <polygon id="Fill-1" fill="#FFFFFF" points="30.5168067 37.2272268 30.5168067 67.2605601 53.8865546 67.2605601 53.8865546 44.4338616 46.9493697 37.2272268"></polygon>
                        <polygon id="Stroke-2" stroke="#939393" stroke-linecap="round" stroke-linejoin="round" points="30.5168067 37.2272268 30.5168067 67.2605601 53.8865546 67.2605601 53.8865546 44.4338616 46.9493697 37.2272268"></polygon>
                        <polygon id="Fill-4" fill="#EBEBEB" points="46.7817202 37.4279268 46.7272664 44.7355829 53.9612244 44.7355829"></polygon>
                        <g id="Group-95" transform="translate(0.000000, 0.026848)">
                            <polygon id="Stroke-5" stroke="#939393" stroke-linecap="round" stroke-linejoin="round" points="46.7272664 44.7087349 53.9612244 44.7087349 46.7817202 37.4010788"></polygon>
                            <path d="M44.4967941,44.5766337 L33.6407521,44.578909 C33.5298025,44.578909 33.4397269,44.488809 33.4397269,44.3775491 L33.4395,43.204884 C33.4395,43.0938516 33.5293487,43.0035241 33.6402983,43.0035241 L44.4965672,43.0012489 C44.6072899,43.0012489 44.6973655,43.0913489 44.6973655,43.2026087 L44.6975924,44.3752739 C44.6975924,44.4863062 44.6077437,44.5766337 44.4967941,44.5766337" id="Fill-7" fill="#3387FB"></path>
                            <path d="M49.6352345,49.1074578 L33.6407975,49.1151937 C33.5298479,49.1154212 33.4399992,49.0250937 33.4399992,48.9138338 L33.4395454,48.3864303 C33.4395454,48.2751705 33.5293941,48.1850705 33.6403437,48.1850705 L49.6347807,48.1771071 C49.7457303,48.1771071 49.8358059,48.2672071 49.8358059,48.3784669 L49.8360328,48.9058705 C49.8360328,49.0171303 49.746184,49.1074578 49.6352345,49.1074578" id="Fill-9" fill="#06BD91"></path>
                            <path d="M49.3187672,51.2486752 L33.6408429,51.2564111 C33.5298933,51.2564111 33.4400445,51.1663111 33.4398176,51.0550512 L33.4395908,50.5276477 C33.4395908,50.4163879 33.5294395,50.3260603 33.6403891,50.3260603 L49.3183134,50.3183245 C49.429263,50.3183245 49.5193387,50.4084245 49.5193387,50.5196843 L49.5195655,51.0470879 C49.5195655,51.1583477 49.4297168,51.2486752 49.3187672,51.2486752" id="Fill-11" fill="#06BD91"></path>
                            <path d="M48.0932849,53.677439 L33.6407975,53.6844923 C33.5298479,53.6844923 33.4399992,53.5943923 33.4399992,53.4831325 L33.4397723,52.9557289 C33.4395454,52.8444691 33.5293941,52.7543691 33.6403437,52.7541416 L48.0928311,52.7470883 C48.2037807,52.7470883 48.2938563,52.8371883 48.2938563,52.9484481 L48.2940832,53.4758517 C48.2940832,53.5871115 48.2042345,53.677439 48.0932849,53.677439" id="Fill-13" fill="#06BD91"></path>
                            <path d="M46.2697866,56.3418963 L33.6408202,56.3480394 C33.5298706,56.3480394 33.4400218,56.2579394 33.439795,56.1466796 L33.4395681,55.6192761 C33.4395681,55.5080162 33.5294168,55.4179162 33.6403664,55.4176887 L46.2693328,55.4115455 C46.3802824,55.4115455 46.470358,55.5016455 46.470358,55.6129054 L46.4705849,56.1403089 C46.4705849,56.2515687 46.3807361,56.3418963 46.2697866,56.3418963" id="Fill-15" fill="#06BD91"></path>
                            <path d="M48.9667008,59.3051169 L33.6409109,59.3126252 C33.5299613,59.3126252 33.4398857,59.2225252 33.4398857,59.1112654 L33.4396588,58.5838618 C33.4396588,58.472602 33.5295076,58.382502 33.6404571,58.3822745 L48.9662471,58.3747661 C49.0771966,58.3747661 49.1672723,58.4648661 49.1672723,58.576126 L49.1674992,59.1035295 C49.1674992,59.2147894 49.0776504,59.3051169 48.9667008,59.3051169" id="Fill-17" fill="#06BD91"></path>
                            <path d="M48.6658891,62.2313647 L33.6409563,62.2386455 C33.5300067,62.2386455 33.4399311,62.1485455 33.4399311,62.0372856 L33.4397042,61.5098821 C33.4397042,61.3986222 33.5295529,61.3085222 33.6405025,61.3085222 L48.6654353,61.3010139 C48.7763849,61.3010139 48.8664605,61.3911139 48.8664605,61.5023738 L48.8666874,62.0297773 C48.8666874,62.1410371 48.7768387,62.2313647 48.6658891,62.2313647" id="Fill-19" fill="#06BD91"></path>
                            <path d="M37.5201529,65.0347943 L33.6407748,65.0366145 C33.5298252,65.036842 33.4399765,64.9465145 33.4399765,64.8352547 L33.4397496,64.3078511 C33.4395227,64.1968188 33.5293714,64.1064913 33.640321,64.1064913 L37.5196992,64.1044436 C37.6306487,64.1044436 37.7207244,64.1945436 37.7207244,64.3058034 L37.7209513,64.8332069 C37.7209513,64.9444668 37.6311025,65.0347943 37.5201529,65.0347943" id="Fill-21" fill="#06BD91"></path>
                            <polygon id="Fill-23" fill="#FFFFFF" points="0.113445378 37.2003788 0.113445378 67.2337121 23.4831933 67.2337121 23.4831933 44.4070136 16.4359664 37.2003788"></polygon>
                            <polygon id="Stroke-25" stroke="#939393" stroke-linecap="round" stroke-linejoin="round" points="0.113445378 37.2003788 0.113445378 67.2337121 23.4831933 67.2337121 23.4831933 44.4070136 16.4359664 37.2003788"></polygon>
                            <polygon id="Fill-27" fill="#EBEBEB" points="16.2682487 37.4010788 16.213795 44.7087349 23.4477529 44.7087349"></polygon>
                            <polygon id="Stroke-29" stroke="#939393" stroke-linecap="round" stroke-linejoin="round" points="16.2682487 37.4010788 16.213795 44.7087349 23.4477529 44.7087349"></polygon>
                            <path d="M15.0490966,44.8537595 L3.12712185,44.8562622 C3.01617227,44.8562622 2.92632353,44.7661622 2.92632353,44.6549024 L2.92609664,44.1274989 C2.92609664,44.016239 3.01617227,43.926139 3.12712185,43.926139 L15.0488697,43.9234087 C15.1598193,43.9234087 15.249895,44.0137362 15.249895,44.1249961 L15.249895,44.6523996 C15.249895,44.7634319 15.1600462,44.8537595 15.0490966,44.8537595" id="Fill-31" fill="#EBEBEB"></path>
                            <path d="M19.1217857,49.1074578 L3.12734874,49.1151937 C3.01639916,49.1154212 2.92655042,49.0250937 2.92655042,48.9138338 L2.92609664,48.3864303 C2.92609664,48.2751705 3.01594538,48.1850705 3.12689496,48.1850705 L19.1213319,48.1771071 C19.2322815,48.1771071 19.3223571,48.2672071 19.3223571,48.3784669 L19.322584,48.9058705 C19.322584,49.0171303 19.2327353,49.1074578 19.1217857,49.1074578" id="Fill-33" fill="#EBEBEB"></path>
                            <path d="M17.9743765,51.2490848 L3.12732605,51.2563656 C3.01637647,51.2563656 2.92652773,51.1662656 2.92652773,51.0550057 L2.92607395,50.5276022 C2.92607395,50.4163423 3.01592269,50.3260148 3.12687227,50.3260148 L17.9739227,50.318734 C18.0848723,50.318734 18.1749479,50.408834 18.1749479,50.5200939 L18.1751748,51.0474974 C18.1751748,51.1587572 18.0853261,51.2490848 17.9743765,51.2490848" id="Fill-35" fill="#EBEBEB"></path>
                            <path d="M19.8231958,53.6763469 L3.1274395,53.6845378 C3.01648992,53.6845378 2.92641429,53.5944378 2.92641429,53.483178 L2.92618739,52.9557744 C2.92618739,52.8445146 3.01603613,52.7541871 3.12698571,52.7541871 L19.822742,52.7459962 C19.9336916,52.7459962 20.0237672,52.8360962 20.0237672,52.947356 L20.0239941,53.4747595 C20.0239941,53.5860194 19.9341454,53.6763469 19.8231958,53.6763469" id="Fill-37" fill="#EBEBEB"></path>
                            <path d="M15.2972924,56.3421238 L3.12732605,56.3480394 C3.01637647,56.3480394 2.92652773,56.2579394 2.92652773,56.1466796 L2.92630084,55.6192761 C2.92607395,55.5080162 3.01592269,55.4179162 3.12687227,55.4176887 L15.2968387,55.411773 C15.4077882,55.411773 15.4978639,55.501873 15.4978639,55.6131329 L15.4980908,56.1405364 C15.4980908,56.2517963 15.408242,56.3421238 15.2972924,56.3421238" id="Fill-39" fill="#EBEBEB"></path>
                            <path d="M20.2413101,59.3042523 L3.12739412,59.3126707 C3.01644454,59.3126707 2.9265958,59.2225707 2.92636891,59.1113109 L2.92614202,58.5839073 C2.92614202,58.4726475 3.01599076,58.38232 3.12694034,58.38232 L20.2408563,58.3739015 C20.3518059,58.3739015 20.4418815,58.4640015 20.4418815,58.5752614 L20.4421084,59.1026649 C20.4421084,59.2139248 20.3522597,59.3042523 20.2413101,59.3042523" id="Fill-41" fill="#EBEBEB"></path>
                            <path d="M19.0591639,62.2309096 L3.12734874,62.2386455 C3.01639916,62.2386455 2.92655042,62.1485455 2.92632353,62.0372856 L2.92609664,61.5098821 C2.92609664,61.3986222 3.01594538,61.3085222 3.12689496,61.3085222 L19.0587101,61.3005589 C19.1696597,61.3005589 19.2597353,61.3906589 19.2597353,61.5019187 L19.2599622,62.0293222 C19.2599622,62.1405821 19.1701134,62.2309096 19.0591639,62.2309096" id="Fill-43" fill="#EBEBEB"></path>
                            <path d="M7.37195294,65.0346351 L3.12750756,65.0366828 C3.01655798,65.0366828 2.92648235,64.9465828 2.92648235,64.8353229 L2.92625546,64.3079194 C2.92602857,64.1966595 3.0161042,64.1065595 3.12705378,64.1065595 L7.37149916,64.1042843 C7.48244874,64.1042843 7.57252437,64.1943843 7.57252437,64.3056441 L7.57275126,64.8330477 C7.57275126,64.9443075 7.48290252,65.0346351 7.37195294,65.0346351" id="Fill-45" fill="#EBEBEB"></path>
                            <polygon id="Fill-47" fill="#FFFFFF" points="30.5168067 0.113762626 30.5168067 30.147096 53.8865546 30.147096 53.8865546 7.2277947 46.9493697 0.113762626"></polygon>
                            <polygon id="Stroke-49" stroke="#939393" stroke-linecap="round" stroke-linejoin="round" points="30.5168067 0.113762626 30.5168067 30.147096 53.8865546 30.147096 53.8865546 7.2277947 46.9493697 0.113762626"></polygon>
                            <polygon id="Fill-51" fill="#EBEBEB" points="46.7817202 0.086937399 46.7272664 7.39459346 53.9612244 7.39459346"></polygon>
                            <polygon id="Stroke-53" stroke="#939393" stroke-linecap="round" stroke-linejoin="round" points="46.7817202 0.086937399 46.7272664 7.39459346 53.9612244 7.39459346"></polygon>
                            <path d="M45.5625681,7.67456328 L33.6405933,7.67706606 C33.5296437,7.67706606 33.439795,7.58696606 33.439795,7.47570621 L33.4395681,6.94830268 C33.4395681,6.83704283 33.5296437,6.74694283 33.6405933,6.74694283 L45.5623412,6.74421253 C45.6732908,6.74421253 45.7633664,6.83454005 45.7633664,6.9457999 L45.7633664,7.47297591 C45.7633664,7.58423576 45.6735176,7.67456328 45.5625681,7.67456328" id="Fill-55" fill="#EBEBEB"></path>
                            <path d="M49.6352345,11.9282844 L33.6407975,11.9360203 C33.5298479,11.9362478 33.4399992,11.8459203 33.4399992,11.7346604 L33.4395454,11.2072569 C33.4395454,11.095997 33.5293941,11.005897 33.6403437,11.005897 L49.6347807,10.9979336 C49.7457303,10.9979336 49.8358059,11.0880336 49.8358059,11.1992935 L49.8360328,11.726697 C49.8360328,11.8379569 49.746184,11.9282844 49.6352345,11.9282844" id="Fill-57" fill="#EBEBEB"></path>
                            <path d="M48.4878479,14.0698886 L33.6407975,14.0771694 C33.5298479,14.0771694 33.4399992,13.9870694 33.4399992,13.8758095 L33.4395454,13.348406 C33.4395454,13.2371462 33.5293941,13.1468186 33.6403437,13.1468186 L48.4873941,13.1395378 C48.5983437,13.1395378 48.6884193,13.2296378 48.6884193,13.3408977 L48.6886462,13.8683012 C48.6886462,13.9795611 48.5987975,14.0698886 48.4878479,14.0698886" id="Fill-59" fill="#EBEBEB"></path>
                            <path d="M50.3366672,16.4971507 L33.6409109,16.5053416 C33.5299613,16.5053416 33.4398857,16.4152416 33.4398857,16.3039818 L33.4396588,15.7765783 C33.4396588,15.6653184 33.5295076,15.5749909 33.6404571,15.5749909 L50.3362134,15.5668 C50.447163,15.5668 50.5372387,15.6569 50.5372387,15.7681598 L50.5374655,16.2955634 C50.5374655,16.4068232 50.4476168,16.4971507 50.3366672,16.4971507" id="Fill-61" fill="#EBEBEB"></path>
                            <path d="M45.8107639,19.1629504 L33.6407975,19.168866 C33.5298479,19.168866 33.4399992,19.078766 33.4399992,18.9675062 L33.4397723,18.4401026 C33.4395454,18.3288428 33.5293941,18.2387428 33.6403437,18.2385153 L45.8103101,18.2325996 C45.9212597,18.2325996 46.0113353,18.3226996 46.0113353,18.4339594 L46.0115622,18.961363 C46.0115622,19.0726228 45.9217134,19.1629504 45.8107639,19.1629504" id="Fill-63" fill="#EBEBEB"></path>
                            <path d="M50.7547815,22.1250561 L33.6408655,22.1334745 C33.529916,22.1334745 33.4400672,22.0433745 33.4398403,21.9321147 L33.4396134,21.4047112 C33.4396134,21.2934513 33.5294622,21.2031238 33.6404118,21.2031238 L50.7543277,21.1947054 C50.8652773,21.1947054 50.9553529,21.2848054 50.9553529,21.3960652 L50.9555798,21.9234687 C50.9555798,22.0347286 50.8657311,22.1250561 50.7547815,22.1250561" id="Fill-65" fill="#EBEBEB"></path>
                            <path d="M49.5726353,25.0517362 L33.6408202,25.059472 C33.5298706,25.059472 33.4400218,24.969372 33.439795,24.8581122 L33.4395681,24.3307087 C33.4395681,24.2194488 33.5294168,24.1293488 33.6403664,24.1293488 L49.5721815,24.1213854 C49.6831311,24.1213854 49.7732067,24.2114854 49.7732067,24.3227453 L49.7734336,24.8501488 C49.7734336,24.9614087 49.6835849,25.0517362 49.5726353,25.0517362" id="Fill-67" fill="#EBEBEB"></path>
                            <path d="M37.8854244,27.8554389 L33.640979,27.8574866 C33.5300294,27.8574866 33.4399538,27.7673866 33.4399538,27.6561267 L33.4397269,27.1287232 C33.4395,27.0174634 33.5295756,26.9273634 33.6405252,26.9273634 L37.8849706,26.9250881 C37.9959202,26.9250881 38.0859958,27.0151881 38.0859958,27.126448 L38.0862227,27.6538515 C38.0862227,27.7651113 37.9963739,27.8554389 37.8854244,27.8554389" id="Fill-69" fill="#EBEBEB"></path>
                            <polygon id="Fill-71" fill="#FFFFFF" points="0.113445378 0.113762626 0.113445378 30.147096 23.4831933 30.147096 23.4831933 7.2277947 16.4359664 0.113762626"></polygon>
                            <polygon id="Stroke-73" stroke="#939393" stroke-linecap="round" stroke-linejoin="round" points="0.113445378 0.113762626 0.113445378 30.147096 23.4831933 30.147096 23.4831933 7.2277947 16.4359664 0.113762626"></polygon>
                            <polygon id="Fill-75" fill="#EBEBEB" points="16.2682487 0.086937399 16.213795 7.39459346 23.4477529 7.39459346"></polygon>
                            <polygon id="Stroke-77" stroke="#939393" stroke-linecap="round" stroke-linejoin="round" points="16.2682487 0.086937399 16.213795 7.39459346 23.4477529 7.39459346"></polygon>
                            <path d="M15.0490966,7.67456328 L3.12712185,7.67706606 C3.01617227,7.67706606 2.92632353,7.58696606 2.92632353,7.47570621 L2.92609664,6.94830268 C2.92609664,6.83704283 3.01617227,6.74694283 3.12712185,6.74694283 L15.0488697,6.74421253 C15.1598193,6.74421253 15.249895,6.83454005 15.249895,6.9457999 L15.249895,7.47297591 C15.249895,7.58423576 15.1600462,7.67456328 15.0490966,7.67456328" id="Fill-79" fill="#EBEBEB"></path>
                            <path d="M19.1217857,11.9282844 L3.12734874,11.9360203 C3.01639916,11.9362478 2.92655042,11.8459203 2.92655042,11.7346604 L2.92609664,11.2072569 C2.92609664,11.095997 3.01594538,11.005897 3.12689496,11.005897 L19.1213319,10.9979336 C19.2322815,10.9979336 19.3223571,11.0880336 19.3223571,11.1992935 L19.322584,11.726697 C19.322584,11.8379569 19.2327353,11.9282844 19.1217857,11.9282844" id="Fill-81" fill="#EBEBEB"></path>
                            <path d="M17.9743765,14.0698886 L3.12732605,14.0771694 C3.01637647,14.0771694 2.92652773,13.9870694 2.92652773,13.8758095 L2.92607395,13.348406 C2.92607395,13.2371462 3.01592269,13.1468186 3.12687227,13.1468186 L17.9739227,13.1395378 C18.0848723,13.1395378 18.1749479,13.2296378 18.1749479,13.3408977 L18.1751748,13.8683012 C18.1751748,13.9795611 18.0853261,14.0698886 17.9743765,14.0698886" id="Fill-83" fill="#EBEBEB"></path>
                            <path d="M19.8231958,16.4971507 L3.1274395,16.5053416 C3.01648992,16.5053416 2.92641429,16.4152416 2.92641429,16.3039818 L2.92618739,15.7765783 C2.92618739,15.6653184 3.01603613,15.5749909 3.12698571,15.5749909 L19.822742,15.5668 C19.9336916,15.5668 20.0237672,15.6569 20.0237672,15.7681598 L20.0239941,16.2955634 C20.0239941,16.4068232 19.9341454,16.4971507 19.8231958,16.4971507" id="Fill-85" fill="#EBEBEB"></path>
                            <path d="M15.2972924,19.1629504 L3.12732605,19.168866 C3.01637647,19.168866 2.92652773,19.078766 2.92652773,18.9675062 L2.92630084,18.4401026 C2.92607395,18.3288428 3.01592269,18.2387428 3.12687227,18.2385153 L15.2968387,18.2325996 C15.4077882,18.2325996 15.4978639,18.3226996 15.4978639,18.4339594 L15.4980908,18.961363 C15.4980908,19.0726228 15.408242,19.1629504 15.2972924,19.1629504" id="Fill-87" fill="#EBEBEB"></path>
                            <path d="M20.2413101,22.1250561 L3.12739412,22.1334745 C3.01644454,22.1334745 2.9265958,22.0433745 2.92636891,21.9321147 L2.92614202,21.4047112 C2.92614202,21.2934513 3.01599076,21.2031238 3.12694034,21.2031238 L20.2408563,21.1947054 C20.3518059,21.1947054 20.4418815,21.2848054 20.4418815,21.3960652 L20.4421084,21.9234687 C20.4421084,22.0347286 20.3522597,22.1250561 20.2413101,22.1250561" id="Fill-89" fill="#EBEBEB"></path>
                            <path d="M19.0591639,25.0517362 L3.12734874,25.059472 C3.01639916,25.059472 2.92655042,24.969372 2.92632353,24.8581122 L2.92609664,24.3307087 C2.92609664,24.2194488 3.01594538,24.1293488 3.12689496,24.1293488 L19.0587101,24.1213854 C19.1696597,24.1213854 19.2597353,24.2114854 19.2597353,24.3227453 L19.2599622,24.8501488 C19.2599622,24.9614087 19.1701134,25.0517362 19.0591639,25.0517362" id="Fill-91" fill="#EBEBEB"></path>
                            <path d="M7.37195294,27.8554389 L3.12750756,27.8574866 C3.01655798,27.8574866 2.92648235,27.7673866 2.92648235,27.6561267 L2.92625546,27.1287232 C2.92602857,27.0174634 3.0161042,26.9273634 3.12705378,26.9273634 L7.37149916,26.9250881 C7.48244874,26.9250881 7.57252437,27.0151881 7.57252437,27.126448 L7.57275126,27.6538515 C7.57275126,27.7651113 7.48290252,27.8554389 7.37195294,27.8554389" id="Fill-93" fill="#EBEBEB"></path>
                        </g>
                    </g>
                </g>
            </g>
        </g>
    </g>
</svg>