<?xml version="1.0" encoding="UTF-8" standalone="no"?>
<svg width="33px" height="33px" viewBox="0 0 33 33" version="1.1" xmlns="http://www.w3.org/2000/svg" xmlns:xlink="http://www.w3.org/1999/xlink">
    <!-- Generator: Sketch 3.8.1 (29687) - http://www.bohemiancoding.com/sketch -->
    <title>phone-call</title>
    <desc>Created with Sketch.</desc>
    <defs></defs>
    <g id="Page-1" stroke="none" stroke-width="1" fill="none" fill-rule="evenodd">
        <g id="Desktop-HD-Copy" transform="translate(-169.000000, -6982.000000)">
            <g id="07" transform="translate(169.000000, 6796.000000)">
                <g id="1" transform="translate(0.000000, 181.000000)">
                    <g id="phone-call" transform="translate(0.000000, 5.000000)">
                        <circle id="Oval-4" fill="#EEEEEF" cx="16.5" cy="16.5" r="16.5"></circle>
                        <path d="M25.9464397,22.6047737 C25.8861638,22.1491832 25.623153,21.7563664 25.224931,21.527097 L20.5475733,18.8340517 C19.9747069,18.5042134 19.2479569,18.6002371 18.7803685,19.0677845 L17.8590733,19.9890797 C17.6139159,20.234278 17.2260539,20.2559806 16.9570647,20.0394871 C16.2307651,19.4550733 15.5156444,18.8118987 14.8316034,18.1278168 C14.1475625,17.4437759 13.5043879,16.7286961 12.9199332,16.0023556 C12.7034397,15.7333254 12.7251013,15.3455043 12.9703405,15.100306 L13.8915948,14.1790108 C14.3591422,13.7115043 14.4552888,12.9848362 14.1253685,12.411847 L11.4323233,7.73448922 C11.2030129,7.33622629 10.8102371,7.07325647 10.3546466,7.0129806 C9.89901509,6.9525819 9.45132759,7.10454095 9.12636207,7.42950647 L7.73817457,8.81773491 C6.76929741,9.78665302 6.75373707,11.5589763 7.69435991,13.808306 C8.59882543,15.9711121 10.2867134,18.3520086 12.4470216,20.5123987 C14.6074116,22.6727478 16.9883082,24.3606358 19.1511552,25.2651013 C20.2583556,25.7281034 21.2498772,25.9594612 22.0870237,25.9594203 C22.9505409,25.9594203 23.6497328,25.7131983 24.1417263,25.2212457 L25.5299138,23.8330172 C25.8548384,23.5080517 26.0066746,23.0603642 25.9464397,22.6047737 L25.9464397,22.6047737 Z M20.2411164,19.3663384 L24.9184741,22.0593836 C25.1497909,22.1925474 25.302528,22.4207112 25.3374978,22.685319 C25.3668987,22.9073815 25.3092026,23.1260453 25.1784138,23.3022457 L18.9622608,19.754569 L19.2147069,19.5021228 C19.4862349,19.2305948 19.9084116,19.1747823 20.2411164,19.3663384 L20.2411164,19.3663384 Z M10.2740603,7.62192241 C10.5387091,7.65693319 10.7668319,7.80967026 10.8999957,8.04098707 L13.5930409,12.7183448 C13.7846789,13.0511315 13.7288254,13.4732263 13.4572974,13.7447134 L13.2254073,13.9766034 L9.65823922,7.78100647 C9.80405603,7.67302586 9.97845474,7.61438793 10.1602651,7.61438793 C10.1979784,7.61438793 10.2360194,7.61688578 10.2740603,7.62192241 L10.2740603,7.62192241 Z M23.707347,24.7869073 C22.9376013,25.556653 21.3633039,25.5243858 19.3881228,24.6983772 C17.2973039,23.8240496 14.9865517,22.1831703 12.8814009,20.0780603 C10.77625,17.9729095 9.13537069,15.6621164 8.2610431,13.5713384 C7.43499353,11.5961164 7.40276724,10.021819 8.17251293,9.25203233 L9.20305819,8.22144612 L12.7755905,14.4264203 L12.5360022,14.6660086 C12.0685776,15.1334741 12.027875,15.8734914 12.4413707,16.3874741 C13.0395841,17.130931 13.6976638,17.8625948 14.3972241,18.5621552 C15.0968664,19.2617565 15.8285302,19.9198362 16.5719461,20.5180496 C17.085847,20.9315453 17.8258642,20.8908836 18.2934116,20.4233772 L18.5119935,20.2047953 L24.7367866,23.7574267 L23.707347,24.7869073 L23.707347,24.7869073 Z" id="Shape" fill="#EB4E4E"></path>
                    </g>
                </g>
            </g>
        </g>
    </g>
</svg>