<?xml version="1.0" encoding="UTF-8" standalone="no"?>
<svg width="102px" height="72px" viewBox="0 0 102 72" version="1.1" xmlns="http://www.w3.org/2000/svg" xmlns:xlink="http://www.w3.org/1999/xlink">
    <!-- Generator: Sketch 39 (31667) - http://www.bohemiancoding.com/sketch -->
    <title>Page 1</title>
    <desc>Created with Sketch.</desc>
    <defs></defs>
    <g id="Page-1" stroke="none" stroke-width="1" fill="none" fill-rule="evenodd">
        <g id="Desktop-HD-Copy" transform="translate(-839.000000, -4278.000000)">
            <g id="Group-03" transform="translate(804.000000, 3810.000000)">
                <g id="Group-9-Copy-10" transform="translate(2.000000, 469.000000)">
                    <g id="Page-1" transform="translate(34.000000, 0.000000)">
                        <path d="M82.1713545,33.4628583 C82.1713545,35.2163583 80.7667435,36.6382333 79.0338905,36.6382333 C77.3013256,36.6382333 75.8967147,35.2163583 75.8967147,33.4628583 C75.8967147,31.7093583 77.3013256,30.2874833 79.0338905,30.2874833 C80.7667435,30.2874833 82.1713545,31.7093583 82.1713545,33.4628583" id="Fill-1" fill="#3387FB"></path>
                        <path d="M69.1969452,33.4628583 C69.1969452,35.0961917 67.8885879,36.4203583 66.274755,36.4203583 C64.6612104,36.4203583 63.352853,35.0961917 63.352853,33.4628583 C63.352853,31.829525 64.6612104,30.5053583 66.274755,30.5053583 C67.8885879,30.5053583 69.1969452,31.829525 69.1969452,33.4628583" id="Fill-3" fill="#3387FB"></path>
                        <path d="M36.6728818,10.5520917 C36.6728818,12.3055917 35.2682709,13.7274667 33.5354179,13.7274667 C31.802853,13.7274667 30.3982421,12.3055917 30.3982421,10.5520917 C30.3982421,8.79859167 31.802853,7.37671667 33.5354179,7.37671667 C35.2682709,7.37671667 36.6728818,8.79859167 36.6728818,10.5520917" id="Fill-5" fill="#2ECA9C"></path>
                        <path d="M23.6984726,10.5520917 C23.6984726,12.185425 22.3901153,13.5095917 20.7762824,13.5095917 C19.1627378,13.5095917 17.8543804,12.185425 17.8543804,10.5520917 C17.8543804,8.91875833 19.1627378,7.59459167 20.7762824,7.59459167 C22.3901153,7.59459167 23.6984726,8.91875833 23.6984726,10.5520917" id="Fill-7" fill="#2ECA9C"></path>
                        <path d="M59.5017003,41.8683708 C59.5017003,41.8683708 72.4942075,52.7422875 86.5501153,41.1100375" id="Stroke-9" stroke="#3387FB" stroke-width="2" stroke-linecap="round" stroke-linejoin="round"></path>
                        <path d="M16.1342939,19.6387042 L38.8314121,19.6387042 C38.8314121,19.6387042 38.826513,29.5550792 27.4827089,29.6498708 C16.1391931,29.7446625 16.1342939,19.6387042 16.1342939,19.6387042 L16.1342939,19.6387042 Z" id="Stroke-11" stroke="#2ECA9C" stroke-width="2" stroke-linecap="round" stroke-linejoin="round"></path>
                        <path d="M50.9146398,36.4101792 C55.1385591,36.4101792 57.3169452,32.6360125 57.3169452,28.3607625 L57.3169452,7.43192917 C57.3169452,3.15697083 54.1976369,-2.91666665e-05 49.9737176,-2.91666665e-05 L7.95325648,-2.91666665e-05 C3.72904899,-2.91666665e-05 -5.76368876e-05,3.15697083 -5.76368876e-05,7.43192917 L-5.76368876e-05,28.3607625 C-5.76368876e-05,32.6360125 3.72904899,36.4101792 7.95325648,36.4101792 L15.5765994,36.4101792 L16.1584438,49.3698042 L26.524438,36.4101792 L35.0610375,36.4101792" id="Stroke-13" stroke="#939393" stroke-width="2" stroke-linecap="round" stroke-linejoin="round"></path>
                        <path d="M50.0263977,20.3649542 C45.8024784,20.3649542 42.6828818,23.5219542 42.6828818,27.7972042 L42.6828818,48.7260375 C42.6828818,53.0009958 45.8024784,56.7751625 50.0263977,56.7751625 L73.4756772,56.7751625 L83.8413833,69.7347875 L84.4235159,56.7751625 L92.0468588,56.7751625 C96.2707781,56.7751625 99.9998847,53.0009958 99.9998847,48.7260375 L99.9998847,27.7972042 C99.9998847,23.5219542 96.2707781,20.3649542 92.0468588,20.3649542 L66.1586744,20.3649542" id="Stroke-15" stroke="#939393" stroke-width="2" stroke-linecap="round" stroke-linejoin="round"></path>
                    </g>
                </g>
            </g>
        </g>
    </g>
</svg>