<?xml version="1.0" encoding="UTF-8" standalone="no"?>
<svg width="67px" height="78px" viewBox="0 0 67 78" version="1.1" xmlns="http://www.w3.org/2000/svg" xmlns:xlink="http://www.w3.org/1999/xlink">
    <!-- Generator: Sketch 39 (31667) - http://www.bohemiancoding.com/sketch -->
    <title>icon passeport</title>
    <desc>Created with Sketch.</desc>
    <defs></defs>
    <g id="Page-1" stroke="none" stroke-width="1" fill="none" fill-rule="evenodd">
        <g id="Desktop-HD-Copy" transform="translate(-858.000000, -4842.000000)">
            <g id="groupe-4" transform="translate(806.000000, 4710.000000)">
                <g id="Group-9-Copy-4" transform="translate(4.000000, 133.000000)">
                    <g id="icon-passeport" transform="translate(49.000000, 0.000000)">
                        <path d="M60.8054439,75.7148348 L23.0135816,75.7148348 C22.1735561,75.7148348 21.4864133,75.0298435 21.4864133,74.1928522 L21.4864133,14.2605739 C21.4864133,13.1665043 22.3848061,12.2713565 23.4828418,12.2713565 L60.8054439,12.2713565 C62.9942194,12.2713565 64.7850357,14.0557043 64.7850357,16.2365739 L64.7850357,71.7496174 C64.7850357,73.930487 62.9942194,75.7148348 60.8054439,75.7148348 L60.8054439,75.7148348 Z" id="Stroke-1" stroke="#939393" stroke-width="2" fill="#FFFFFF"></path>
                        <polygon id="Stroke-3" stroke="#3387FB" stroke-linecap="round" stroke-linejoin="round" points="27.4284082 20.4700713 33.2545306 25.7424887 25.5702704 28.0684191"></polygon>
                        <path d="M31.2574056,20.4700713 L45.6784515,16.1106452" id="Stroke-5" stroke="#EBEBEB" stroke-width="1.5" stroke-linecap="round" stroke-linejoin="round"></path>
                        <path d="M33.2544974,22.6481983 L46.4302628,18.6985113" id="Stroke-7" stroke="#EBEBEB" stroke-width="1.5" stroke-linecap="round" stroke-linejoin="round"></path>
                        <path d="M34.9480791,24.6911774 L43.1357577,22.2396817" id="Stroke-9" stroke="#EBEBEB" stroke-width="1.5" stroke-linecap="round" stroke-linejoin="round"></path>
                        <path d="M37.659773,36.7282887 C36.9242117,36.5343235 36.1525026,36.4299061 35.3555893,36.4299061 C30.3927066,36.4299061 26.3690077,40.4387409 26.3690077,45.3840278 C26.3690077,50.3293148 30.3927066,54.3381496 35.3555893,54.3381496 C40.3188036,54.3381496 44.3421709,50.3293148 44.3421709,45.3840278 C44.3421709,43.4380974 43.717375,41.6385496 42.6591352,40.169767" id="Stroke-11" stroke="#EBEBEB" stroke-width="1.5" stroke-linecap="round" stroke-linejoin="round"></path>
                        <polyline id="Stroke-13" stroke="#06BD91" stroke-width="1.5" stroke-linecap="round" stroke-linejoin="round" points="32.1683673 44.848393 35.8365561 46.9595409 43.1357908 33.4077496"></polyline>
                        <path d="M43.5473138,49.0649722 C43.5473138,49.0649722 48.4335893,49.0702591 52.2808597,46.0986591 C52.4944311,45.9334417 52.6930791,45.7523635 52.8904005,45.5676504 C53.7092015,44.7993896 56.4783342,42.4374417 59.0057066,43.0097548" id="Stroke-15" stroke="#EBEBEB" stroke-width="1.5" stroke-linecap="round" stroke-linejoin="round"></path>
                        <path d="M44.1656429,43.6117078 C44.1656429,43.6117078 49.3006429,43.1950296 52.3078878,39.6973774 C52.3078878,39.6973774 54.1530918,37.4600035 57.2969694,37.5449252" id="Stroke-17" stroke="#EBEBEB" stroke-width="1.5" stroke-linecap="round" stroke-linejoin="round"></path>
                        <path d="M56.2718929,31.9096243 C56.2718929,31.9096243 53.1963316,31.1605287 50.1207704,34.5653287 C50.1207704,34.5653287 47.5237551,36.8806852 44.6531429,37.1532939" id="Stroke-19" stroke="#EBEBEB" stroke-width="1.5" stroke-linecap="round" stroke-linejoin="round"></path>
                        <path d="M24.9852704,67.6968678 L33.738051,62.5747983" id="Stroke-21" stroke="#EBEBEB" stroke-width="1.5" stroke-linecap="round" stroke-linejoin="round"></path>
                        <path d="M26.3691071,70.1193843 L35.3556888,65.135767" id="Stroke-23" stroke="#EBEBEB" stroke-width="1.5" stroke-linecap="round" stroke-linejoin="round"></path>
                        <path d="M27.9028418,72.680353 L33.0073316,69.704127" id="Stroke-25" stroke="#EBEBEB" stroke-width="1.5" stroke-linecap="round" stroke-linejoin="round"></path>
                        <path d="M45.1998393,62.5749635 L58.6760638,67.697033" id="Stroke-27" stroke="#EBEBEB" stroke-width="1.5" stroke-linecap="round" stroke-linejoin="round"></path>
                        <path d="M44.1656429,65.1358991 L57.6342398,70.1195165" id="Stroke-29" stroke="#EBEBEB" stroke-width="1.5" stroke-linecap="round" stroke-linejoin="round"></path>
                        <path d="M43.1356582,67.904513 L50.4096888,70.6038348" id="Stroke-31" stroke="#EBEBEB" stroke-width="1.5" stroke-linecap="round" stroke-linejoin="round"></path>
                        <path d="M22.905801,75.5172678 L1.92307143,65.5345026 C0.731515306,64.8359635 -6.63265306e-05,63.5614765 -6.63265306e-05,62.1842243 L-6.63265306e-05,4.78770261 C-6.63265306e-05,3.03243304 1.95490816,1.97801565 3.4300102,2.93759826 L5.96932143,4.58944174" id="Stroke-35" stroke="#939393" stroke-width="2" stroke-linecap="round" stroke-linejoin="round" fill="#FFFFFF"></path>
                        <path d="M21.4862806,74.5337948 L6.54589796,62.0645078 C6.18043878,61.7595165 5.96952041,61.3088035 5.96952041,60.8336383 L5.96952041,1.25360348 C5.96952041,0.162507826 7.2735,-0.40584 8.07737755,0.334994783 L21.4862806,12.6869774 L21.4862806,74.5337948 L21.4862806,74.5337948 Z" id="Stroke-33" stroke="#939393" stroke-width="2" stroke-linecap="round" stroke-linejoin="round" fill="#FFFFFF"></path>
                    </g>
                </g>
            </g>
        </g>
    </g>
</svg>