<?xml version="1.0" encoding="UTF-8" standalone="no"?>
<svg width="40px" height="19px" viewBox="0 0 40 19" version="1.1" xmlns="http://www.w3.org/2000/svg" xmlns:xlink="http://www.w3.org/1999/xlink">
    <!-- Generator: Sketch 3.8.1 (29687) - http://www.bohemiancoding.com/sketch -->
    <title>Shape</title>
    <desc>Created with Sketch.</desc>
    <defs></defs>
    <g id="Page-1" stroke="none" stroke-width="1" fill="none" fill-rule="evenodd">
        <g id="Desktop-HD-Copy" transform="translate(-247.000000, -1975.000000)" fill="#FFFFFF">
            <g id="input" transform="translate(169.000000, 1530.000000)">
                <g id="L1-Copy" transform="translate(52.000000, 121.000000)">
                    <path d="M56.2325581,341.750529 C56.435518,341.953488 56.6976744,342.054968 56.9682875,342.054968 C57.2389006,342.054968 57.5010571,341.953488 57.7040169,341.750529 L65.6955603,333.758985 C66.1014799,333.353066 66.1014799,332.701903 65.6955603,332.295983 L57.7040169,324.30444 C57.2980973,323.89852 56.6469345,323.89852 56.2410148,324.30444 C55.8350951,324.710359 55.8350951,325.361522 56.2410148,325.767442 L62.4651163,331.991543 L27.0401691,331.991543 C26.4651163,331.991543 26,332.45666 26,333.031712 C26,333.606765 26.4651163,334.071882 27.0401691,334.071882 L62.4566596,334.071882 L56.2325581,340.287526 C55.8266385,340.693446 55.8266385,341.353066 56.2325581,341.750529 L56.2325581,341.750529 Z" id="Shape"></path>
                </g>
            </g>
        </g>
    </g>
</svg>