<?xml version="1.0" encoding="UTF-8" standalone="no"?>
<svg width="350px" height="409px" viewBox="0 0 350 409" version="1.1" xmlns="http://www.w3.org/2000/svg" xmlns:xlink="http://www.w3.org/1999/xlink">
    <!-- Generator: Sketch 39 (31667) - http://www.bohemiancoding.com/sketch -->
    <title>illu-3reasons</title>
    <desc>Created with Sketch.</desc>
    <defs>
        <polygon id="path-1" points="0.6185 10 144.5585 10 144.5585 0.1643 0.6185 0.1643 0.6185 10"></polygon>
        <polygon id="path-3" points="15.836 16.3415 15.836 0.4075 0.0002 0.4075 0.0002 16.3415 15.836 16.3415"></polygon>
    </defs>
    <g id="Page-1" stroke="none" stroke-width="1" fill="none" fill-rule="evenodd">
        <g id="Desktop-HD-Copy" transform="translate(-272.000000, -3148.000000)">
            <g id="3reasons" transform="translate(272.000000, 3001.000000)">
                <g id="illu-3reasons" transform="translate(0.000000, 147.000000)">
                    <path d="M304.999993,206 L49.1148,205.7627 L49.1148,336.1607 C49.1148,336.1607 51.7868,356.0137 67.0588,357.5417 L282.3948,357.5417 C282.3948,357.5417 303.2408,357.4817 305.5318,336.4827 L304.999993,206 Z" id="Fill-1" fill="#5CA6FF"></path>
                    <path d="M282.7685,359.2465 L70.8975,359.2465 C58.3775,359.2465 48.1335,349.0025 48.1335,336.4825 L48.1335,100.9015 C48.1335,88.3815 58.3775,78.1375 70.8975,78.1375 L282.7685,78.1375 C295.2885,78.1375 305.5325,88.3815 305.5325,100.9015 L305.5325,336.4825 C305.5325,349.0025 295.2885,359.2465 282.7685,359.2465 L282.7685,359.2465 Z" id="Stroke-3" stroke="#939393" stroke-width="4" stroke-linecap="round" stroke-linejoin="round"></path>
                    <path d="M49.1145,205.7627 L303.0115,205.7627" id="Stroke-5" stroke="#939393" stroke-width="4" stroke-linecap="round" stroke-linejoin="round"></path>
                    <g id="Group-9" transform="translate(104.000000, 398.920000)">
                        <mask id="mask-2" fill="white">
                            <use xlink:href="#path-1"></use>
                        </mask>
                        <g id="Clip-8"></g>
                        <path d="M144.5585,5.0823 C144.5585,7.7983 112.3365,10.0003 72.5885,10.0003 C32.8405,10.0003 0.6185,7.7983 0.6185,5.0823 C0.6185,2.3663 32.8405,0.1643 72.5885,0.1643 C112.3365,0.1643 144.5585,2.3663 144.5585,5.0823" id="Fill-7" fill="#DBE0E6" mask="url(#mask-2)"></path>
                    </g>
                    <polygon id="Fill-10" fill="#FFFFFF" points="81.5632 295.4695 81.5632 335.4695 112.5632 335.4695 112.5632 303.3235 105.1752 295.4695"></polygon>
                    <polygon id="Stroke-12" stroke="#939393" stroke-linecap="round" stroke-linejoin="round" points="81.5632 295.4695 81.5632 335.4695 112.5632 335.4695 112.5632 303.3235 105.1752 295.4695"></polygon>
                    <polygon id="Fill-14" fill="#EBEBEB" points="105.1752 295.4695 104.9302 303.3005 112.7852 303.3235"></polygon>
                    <polygon id="Stroke-16" stroke="#939393" stroke-linecap="round" stroke-linejoin="round" points="105.1752 295.4695 104.9302 303.3005 112.7852 303.3235"></polygon>
                    <path d="M102.9798,303.9165 L87.8158,303.9195 C87.4748,303.9195 87.1988,303.6435 87.1988,303.3025 L87.1988,303.3025 C87.1978,302.9615 87.4748,302.6855 87.8158,302.6855 L102.9798,302.6825 C103.3208,302.6825 103.5968,302.9585 103.5968,303.2995 C103.5968,303.6405 103.3208,303.9165 102.9798,303.9165" id="Fill-18" fill="#EBEBEB"></path>
                    <path d="M108.3991,309.5611 L87.8161,309.5711 C87.4751,309.5711 87.1981,309.2951 87.1981,308.9541 L87.1981,308.9541 C87.1981,308.6131 87.4741,308.3371 87.8151,308.3371 L108.3981,308.3271 C108.7391,308.3261 109.0161,308.6031 109.0161,308.9431 C109.0161,309.2841 108.7401,309.5611 108.3991,309.5611" id="Fill-20" fill="#EBEBEB"></path>
                    <path d="M106.8723,312.4029 L87.8163,312.4119 C87.4753,312.4119 87.1983,312.1359 87.1983,311.7949 C87.1983,311.4539 87.4743,311.1779 87.8153,311.1779 L106.8713,311.1689 C107.2123,311.1679 107.4893,311.4449 107.4893,311.7849 C107.4893,312.1259 107.2133,312.4029 106.8723,312.4029" id="Fill-22" fill="#EBEBEB"></path>
                    <path d="M109.3325,315.6237 L87.8155,315.6337 C87.4755,315.6347 87.1985,315.3577 87.1985,315.0177 C87.1985,314.6767 87.4745,314.3997 87.8155,314.3997 L109.3315,314.3897 C109.6725,314.3887 109.9495,314.6657 109.9495,315.0057 C109.9495,315.3467 109.6735,315.6237 109.3325,315.6237" id="Fill-24" fill="#EBEBEB"></path>
                    <path d="M103.31,319.1611 L87.816,319.1691 C87.475,319.1691 87.199,318.8931 87.198,318.5521 C87.198,318.2111 87.474,317.9341 87.815,317.9341 L103.309,317.9271 C103.65,317.9261 103.927,318.2031 103.927,318.5431 C103.927,318.8841 103.651,319.1611 103.31,319.1611" id="Fill-26" fill="#EBEBEB"></path>
                    <path d="M109.8889,323.0917 L87.8159,323.1027 C87.4749,323.1027 87.1989,322.8267 87.1989,322.4857 C87.1979,322.1447 87.4749,321.8687 87.8149,321.8677 L109.8879,321.8577 C110.2289,321.8567 110.5059,322.1337 110.5059,322.4737 C110.5059,322.8147 110.2299,323.0917 109.8889,323.0917" id="Fill-28" fill="#EBEBEB"></path>
                    <path d="M108.3158,326.9752 L87.8158,326.9852 C87.4748,326.9852 87.1988,326.7092 87.1988,326.3682 C87.1978,326.0272 87.4748,325.7512 87.8148,325.7512 L108.3148,325.7412 C108.6558,325.7402 108.9328,326.0172 108.9328,326.3572 C108.9328,326.6982 108.6568,326.9752 108.3158,326.9752" id="Fill-30" fill="#EBEBEB"></path>
                    <path d="M92.7641,330.6956 L87.8161,330.6976 C87.4751,330.6986 87.1981,330.4216 87.1981,330.0816 C87.1981,329.7406 87.4741,329.4636 87.8151,329.4636 L92.7631,329.4616 C93.1041,329.4606 93.3811,329.7376 93.3811,330.0776 L93.3811,330.0786 C93.3811,330.4186 93.1051,330.6956 92.7641,330.6956" id="Fill-32" fill="#EBEBEB"></path>
                    <path d="M274.6327,156.288 L138.4647,156.288 C137.0307,156.288 135.8577,155.115 135.8577,153.681 L135.8577,153.681 C135.8577,152.247 137.0307,151.074 138.4647,151.074 L274.6327,151.074 C276.0667,151.074 277.2397,152.247 277.2397,153.681 L277.2397,153.681 C277.2397,155.115 276.0667,156.288 274.6327,156.288" id="Fill-34" fill="#CFD8E3"></path>
                    <path d="M207.9181,170.1927 L138.4651,170.1927 C137.0311,170.1927 135.8571,169.0197 135.8571,167.5857 L135.8571,167.5857 C135.8571,166.1517 137.0311,164.9787 138.4651,164.9787 L207.9181,164.9787 C209.3521,164.9787 210.5251,166.1517 210.5251,167.5857 L210.5251,167.5857 C210.5251,169.0197 209.3521,170.1927 207.9181,170.1927" id="Fill-36" fill="#CFD8E3"></path>
                    <path d="M251.5681,248.4025 L138.4651,248.4025 C137.0311,248.4025 135.8581,247.2295 135.8581,245.7955 C135.8581,244.3615 137.0311,243.1885 138.4651,243.1885 L251.5681,243.1885 C253.0021,243.1885 254.1751,244.3615 254.1751,245.7955 C254.1751,247.2295 253.0021,248.4025 251.5681,248.4025" id="Fill-38" fill="#3387FB"></path>
                    <path d="M203.9416,260.72 L138.4646,260.72 C137.0306,260.72 135.8576,259.547 135.8576,258.113 L135.8576,258.113 C135.8576,256.679 137.0306,255.506 138.4646,255.506 L203.9416,255.506 C205.3756,255.506 206.5486,256.679 206.5486,258.113 L206.5486,258.113 C206.5486,259.547 205.3756,260.72 203.9416,260.72" id="Fill-40" fill="#3387FB"></path>
                    <path d="M252.7566,313.5561 L139.6536,313.5561 C138.2196,313.5561 137.0456,312.3831 137.0456,310.9491 C137.0456,309.5151 138.2196,308.3421 139.6536,308.3421 L252.7566,308.3421 C254.1906,308.3421 255.3636,309.5151 255.3636,310.9491 C255.3636,312.3831 254.1906,313.5561 252.7566,313.5561" id="Fill-42" fill="#3387FB"></path>
                    <path d="M221.7255,325.7621 L139.6535,325.7621 C138.2195,325.7621 137.0465,324.5891 137.0465,323.1551 L137.0465,323.1551 C137.0465,321.7211 138.2195,320.5481 139.6535,320.5481 L221.7255,320.5481 C223.1595,320.5481 224.3325,321.7211 224.3325,323.1551 L224.3325,323.1551 C224.3325,324.5891 223.1595,325.7621 221.7255,325.7621" id="Fill-44" fill="#3387FB"></path>
                    <path d="M97.3467,230.4695 L96.9507,230.4695 C89.9057,230.4695 83.5627,235.0455 83.5627,241.7885 L83.5627,260.4695 L89.3487,260.4695 C89.3457,260.4695 88.5627,259.4025 88.5627,259.3175 L88.5627,241.6285 C88.5627,238.0965 92.0937,235.4695 95.4787,235.4695 L97.3267,235.4695 C100.7117,235.4695 105.5627,238.0965 105.5627,241.6285 L105.5627,259.3175 C105.5627,259.4025 103.4607,260.4695 103.4567,260.4695 L110.5627,260.4695 L110.5627,242.1655 C110.5627,235.2135 104.6087,230.4695 97.3467,230.4695" id="Fill-46" fill="#EBEBEB"></path>
                    <path d="M97.3467,230.4695 L96.9507,230.4695 C89.9057,230.4695 83.5627,235.0455 83.5627,241.7885 L83.5627,260.4695 L89.3487,260.4695 C89.3457,260.4695 88.5627,259.4025 88.5627,259.3175 L88.5627,241.6285 C88.5627,238.0965 92.0937,235.4695 95.4787,235.4695 L97.3267,235.4695 C100.7117,235.4695 105.5627,238.0965 105.5627,241.6285 L105.5627,259.3175 C105.5627,259.4025 103.4607,260.4695 103.4567,260.4695 L110.5627,260.4695 L110.5627,242.1655 C110.5627,235.2135 104.6087,230.4695 97.3467,230.4695 L97.3467,230.4695 Z" id="Stroke-48" stroke="#939393"></path>
                    <path d="M112.145,269.4042 L81.981,269.4042 C81.476,269.4042 81.063,268.9912 81.063,268.4862 L81.063,248.6442 C81.063,248.1392 81.476,247.7262 81.981,247.7262 L112.145,247.7262 C112.65,247.7262 113.063,248.1392 113.063,248.6442 L113.063,268.4862 C113.063,268.9912 112.65,269.4042 112.145,269.4042" id="Fill-50" fill="#FAD57C"></path>
                    <path d="M112.145,269.4042 L81.981,269.4042 C81.476,269.4042 81.063,268.9912 81.063,268.4862 L81.063,248.6442 C81.063,248.1392 81.476,247.7262 81.981,247.7262 L112.145,247.7262 C112.65,247.7262 113.063,248.1392 113.063,248.6442 L113.063,268.4862 C113.063,268.9912 112.65,269.4042 112.145,269.4042 L112.145,269.4042 Z" id="Stroke-52" stroke="#939393"></path>
                    <path d="M94.3294,258.565 C94.3294,257.012 95.5884,255.754 97.1404,255.754 C98.6934,255.754 99.9524,257.012 99.9524,258.565 C99.9524,260.118 98.6934,261.376 97.1404,261.376 C95.5884,261.376 94.3294,260.118 94.3294,258.565" id="Fill-54" fill="#CDA55F"></path>
                    <path d="M97.3822,264.0652 L96.7442,264.0652 C96.3262,264.0652 95.9842,263.7232 95.9842,263.3052 L95.9842,260.0382 C95.9842,259.6202 96.3262,259.2782 96.7442,259.2782 L97.3822,259.2782 C97.8002,259.2782 98.1422,259.6202 98.1422,260.0382 L98.1422,263.3052 C98.1422,263.7232 97.8002,264.0652 97.3822,264.0652" id="Fill-56" fill="#CDA55F"></path>
                    <path d="M104.9337,156.6066 C104.9337,167.6296 95.9977,176.5666 84.9737,176.5666 C73.9507,176.5666 65.0137,167.6296 65.0137,156.6066 C65.0137,145.5836 73.9507,136.6466 84.9737,136.6466 C95.9977,136.6466 104.9337,145.5836 104.9337,156.6066" id="Fill-58" fill="#7AB0EF"></path>
                    <path d="M95.8187,173.3395 L96.8367,167.6275 C96.7847,161.8055 93.2627,161.0235 93.2627,161.0235 L88.6197,159.6335 C87.6807,163.1085 83.7157,164.1515 83.7157,164.1515 C83.7157,164.1515 80.3267,163.1085 79.5247,159.6335 L75.5557,161.0235 C75.5557,161.0235 72.5467,161.8055 72.5017,167.6275 L72.7297,172.7915 L78.0017,175.6105 L83.7117,176.5265 L88.2167,176.4315 L95.8187,173.3395 Z" id="Fill-60" fill="#3387FB"></path>
                    <path d="M95.8187,173.3395 L96.8367,167.6275 C96.7847,161.8055 93.2627,161.0235 93.2627,161.0235 L88.6197,159.6335 C87.6807,163.1085 83.7157,164.1515 83.7157,164.1515 C83.7157,164.1515 80.3267,163.1085 79.5247,159.6335 L75.5557,161.0235 C75.5557,161.0235 72.5467,161.8055 72.5017,167.6275 L72.7297,172.7915 L78.0017,175.6105 L83.7117,176.5265 L88.2167,176.4315 L95.8187,173.3395 L95.8187,173.3395 Z" id="Stroke-62" stroke="#939393"></path>
                    <path d="M88.9328,160.1545 L91.4368,160.6755 C91.4368,160.6755 94.4988,161.4745 95.6108,163.6305 C95.6108,163.6305 96.4598,165.0205 96.4458,174.5795 C96.4458,174.5795 96.6898,162.2915 88.9328,160.1545" id="Fill-64" fill="#5CA6FF"></path>
                    <path d="M104.6187,156.7885 C104.6187,167.8115 95.6827,176.7485 84.6587,176.7485 C73.6357,176.7485 64.6987,167.8115 64.6987,156.7885 C64.6987,145.7655 73.6357,136.8285 84.6587,136.8285 C95.6827,136.8285 104.6187,145.7655 104.6187,156.7885 L104.6187,156.7885 Z" id="Stroke-66" stroke="#939393" stroke-width="2" stroke-linecap="round" stroke-linejoin="round"></path>
                    <g id="Group-71" transform="translate(74.000000, 142.920000)">
                        <path d="M9.651,0.4516 C7.796,0.4506 6.177,0.6816 4.591,2.4756 C3.734,3.4446 3.004,5.3556 2.832,7.7056 L2.624,12.1066 L0.891,14.3996 C2.611,15.4416 6.611,15.0256 6.611,15.0256 C7.6,17.0486 9.856,16.9926 10.226,16.9446 C10.669,16.9776 12.276,16.9386 13.274,14.9666 C13.274,14.9666 16.806,15.3836 18.586,14.3406 L16.563,11.6306 L16.563,7.2296 C16.563,5.7946 16.257,4.3776 15.414,3.1966 C14.473,1.8796 12.363,0.6456 9.653,0.4486" id="Fill-68" fill="#FFD5B8"></path>
                        <path d="M9.651,0.4516 C7.796,0.4506 6.177,0.6816 4.591,2.4756 C3.734,3.4446 3.004,5.3556 2.832,7.7056 L2.624,12.1066 L0.891,14.3996 C2.611,15.4416 6.611,15.0256 6.611,15.0256 C7.6,17.0486 9.856,16.9926 10.226,16.9446 C10.669,16.9776 12.276,16.9386 13.274,14.9666 C13.274,14.9666 16.806,15.3836 18.586,14.3406 L16.563,11.6306 L16.563,7.2296 C16.563,5.7946 16.257,4.3776 15.414,3.1966 C14.473,1.8796 12.363,0.6456 9.653,0.4486" id="Stroke-70" stroke="#939393"></path>
                    </g>
                    <path d="M128.9337,157.6066 C128.9337,168.6296 119.9977,177.5666 108.9737,177.5666 C97.9507,177.5666 89.0137,168.6296 89.0137,157.6066 C89.0137,146.5836 97.9507,137.6466 108.9737,137.6466 C119.9977,137.6466 128.9337,146.5836 128.9337,157.6066" id="Fill-72" fill="#74E2BA"></path>
                    <path d="M121.0898,173.4057 L120.8368,168.6277 C120.7848,162.8057 117.2628,162.0237 117.2628,162.0237 L112.6198,160.6327 C111.6808,164.1087 107.7158,165.1517 107.7158,165.1517 C107.7158,165.1517 104.3268,164.1087 103.5248,160.6327 L99.5558,162.0237 C99.5558,162.0237 96.5468,162.8057 96.5018,168.6277 L96.7328,173.7947 L104.0698,177.2167 L108.3888,177.7487 L114.2438,176.9567 L121.0898,173.4057 Z" id="Fill-74" fill="#2ECA9C"></path>
                    <path d="M121.0898,173.4057 L120.8368,168.6277 C120.7848,162.8057 117.2628,162.0237 117.2628,162.0237 L112.6198,160.6327 C111.6808,164.1087 107.7158,165.1517 107.7158,165.1517 C107.7158,165.1517 104.3268,164.1087 103.5248,160.6327 L99.5558,162.0237 C99.5558,162.0237 96.5468,162.8057 96.5018,168.6277 L96.7328,173.7947 L104.0698,177.2167 L108.3888,177.7487 L114.2438,176.9567 L121.0898,173.4057 L121.0898,173.4057 Z" id="Stroke-76" stroke="#939393"></path>
                    <path d="M112.9328,161.3012 L115.3638,161.8302 C115.3638,161.8302 118.4988,162.4752 119.6108,164.6302 C119.6108,164.6302 120.6058,164.7852 120.5908,174.3442 C120.5908,174.3442 120.6898,163.4382 112.9328,161.3012" id="Fill-78" fill="#4BDDAC"></path>
                    <g id="Group-83" transform="translate(100.000000, 143.920000)">
                        <path d="M8.3006,0.0773 C8.3006,0.0773 -0.6264,0.9483 1.7236,8.5563 C1.7236,8.5563 0.5276,8.5673 1.2036,10.5503 C1.2036,10.5503 2.2586,11.9203 2.5886,11.3823 C2.5886,11.3823 4.4816,15.7283 6.8316,16.3683 C7.5076,16.6383 8.4366,16.8063 9.4766,16.4223 C11.8606,16.0443 13.8246,11.3823 13.8246,11.3823 C14.1426,11.9203 15.1636,10.5503 15.1636,10.5503 C15.8166,8.5673 14.6606,8.5563 14.6606,8.5563 C16.9326,0.9483 8.3006,0.0773 8.3006,0.0773" id="Fill-80" fill="#FFD5B8"></path>
                        <path d="M8.3006,0.0773 C8.3006,0.0773 -0.6264,0.9483 1.7236,8.5563 C1.7236,8.5563 0.5276,8.5673 1.2036,10.5503 C1.2036,10.5503 2.2586,11.9203 2.5886,11.3823 C2.5886,11.3823 4.4816,15.7283 6.8316,16.3683 C7.5076,16.6383 8.4366,16.8063 9.4766,16.4223 C11.8606,16.0443 13.8246,11.3823 13.8246,11.3823 C14.1426,11.9203 15.1636,10.5503 15.1636,10.5503 C15.8166,8.5673 14.6606,8.5563 14.6606,8.5563 C16.9326,0.9483 8.3006,0.0773 8.3006,0.0773" id="Stroke-82" stroke="#939393" stroke-linecap="round" stroke-linejoin="round"></path>
                    </g>
                    <path d="M128.6187,157.7885 C128.6187,168.8115 119.6827,177.7485 108.6587,177.7485 C97.6357,177.7485 88.6987,168.8115 88.6987,157.7885 C88.6987,146.7655 97.6357,137.8285 108.6587,137.8285 C119.6827,137.8285 128.6187,146.7655 128.6187,157.7885 L128.6187,157.7885 Z" id="Stroke-84" stroke="#939393" stroke-width="2" stroke-linecap="round" stroke-linejoin="round"></path>
                    <path d="M222.0792,77.0426 C222.0792,102.2066 201.6802,122.6056 176.5162,122.6056 C151.3522,122.6056 130.9532,102.2066 130.9532,77.0426 C130.9532,51.8786 151.3522,31.4796 176.5162,31.4796 C201.6802,31.4796 222.0792,51.8786 222.0792,77.0426" id="Fill-86" fill="#2ECA9C"></path>
                    <path d="M176.5162,122.6056 C151.3522,122.6056 130.9532,102.2066 130.9532,77.0426 C130.9532,51.8786 151.3522,31.4796 176.5162,31.4796 C201.6802,31.4796 222.0792,51.8786 222.0792,77.0426 C222.0792,102.2066 201.6802,122.6056 176.5162,122.6056 Z" id="Stroke-88" stroke="#939393" stroke-width="4" stroke-linecap="round" stroke-linejoin="round"></path>
                    <path d="M158,64.9695 L158.379238,82.4785 C158.379238,82.4785 163.465369,92.5005 176.439032,101.3815 C176.439032,101.3815 191.267552,90.1375 194.292157,82.5395 L195.0713,64.9695 L158,64.9695 Z" id="Fill-90" fill="#FFFFFF"></path>
                    <path d="M159.1963,64.4791 C159.1963,64.4791 179.1063,72.5591 194.3013,64.4791 L194.3343,57.1871 C194.3343,57.1871 179.4533,63.9841 159.1973,57.0171 L159.1963,64.4791 Z" id="Fill-92" fill="#D83543"></path>
                    <path d="M159.1963,64.4791 C159.1963,64.4791 179.523901,72.5591 195.037608,64.4791 L195.0713,57.1871 C195.0713,57.1871 179.878179,63.9841 159.197321,57.0171 L159.1963,64.4791 L159.1963,64.4791 Z" id="Stroke-94" stroke="#939393" stroke-width="2" stroke-linecap="round" stroke-linejoin="round"></path>
                    <path d="M195.4382,57.1866 L195.226085,82.2326 C195.226085,82.2326 196.781947,85.4736 176.90255,101.2586 C176.90255,101.2586 158.3669,88.1506 158.3669,82.2326 L158.3669,81.7396 L158.3669,57.0166 C158.3669,57.0166 178.316295,63.5846 195.4382,57.1866 Z" id="Stroke-96" stroke="#939393" stroke-width="2" stroke-linecap="round" stroke-linejoin="round"></path>
                    <g id="Group-102" transform="translate(334.000000, 151.920000)">
                        <mask id="mask-4" fill="white">
                            <use xlink:href="#path-3"></use>
                        </mask>
                        <g id="Clip-101"></g>
                        <path d="M13.7352,6.0495 L10.0632,6.0495 L10.0632,2.5085 C10.0632,1.3525 9.2182,0.4075 8.0632,0.4075 C6.9082,0.4075 6.0632,1.3525 6.0632,2.5085 L6.0632,6.0495 L2.1002,6.0495 C0.9452,6.0495 0.0002,6.8945 0.0002,8.0495 C0.0002,9.2045 0.9452,10.0495 2.1002,10.0495 L6.0632,10.0495 L6.0632,14.2405 C6.0632,15.3955 6.9082,16.3415 8.0632,16.3415 C9.2182,16.3415 10.0632,15.3955 10.0632,14.2405 L10.0632,10.0495 L13.7352,10.0495 C14.8902,10.0495 15.8362,9.2045 15.8362,8.0495 C15.8362,6.8945 14.8902,6.0495 13.7352,6.0495" id="Fill-100" fill="#F3F3F3" mask="url(#mask-4)"></path>
                    </g>
                    <path d="M13.7352,74.9695 L10.0632,74.9695 L10.0632,71.4285 C10.0632,70.2725 9.2182,69.3275 8.0632,69.3275 C6.9082,69.3275 6.0632,70.2725 6.0632,71.4285 L6.0632,74.9695 L2.1002,74.9695 C0.9452,74.9695 0.0002,75.8145 0.0002,76.9695 C0.0002,78.1245 0.9452,78.9695 2.1002,78.9695 L6.0632,78.9695 L6.0632,83.1605 C6.0632,84.3155 6.9082,85.2615 8.0632,85.2615 C9.2182,85.2615 10.0632,84.3155 10.0632,83.1605 L10.0632,78.9695 L13.7352,78.9695 C14.8902,78.9695 15.8362,78.1245 15.8362,76.9695 C15.8362,75.8145 14.8902,74.9695 13.7352,74.9695" id="Fill-103" fill="#F3F3F3"></path>
                    <path d="M342.0874,67.7083 C342.0874,69.2213 340.8614,70.4473 339.3484,70.4473 C337.8364,70.4473 336.6094,69.2213 336.6094,67.7083 C336.6094,66.1953 337.8364,64.9693 339.3484,64.9693 C340.8614,64.9693 342.0874,66.1953 342.0874,67.7083" id="Fill-105" fill="#F3F3F3"></path>
                    <path d="M319.8552,14.5413 C319.8552,17.0903 317.7882,19.1573 315.2392,19.1573 C312.6902,19.1573 310.6232,17.0903 310.6232,14.5413 C310.6232,11.9923 312.6902,9.9253 315.2392,9.9253 C317.7882,9.9253 319.8552,11.9923 319.8552,14.5413" id="Fill-107" fill="#F3F3F3"></path>
                    <path d="M263.3591,27.3638 C263.3591,28.8748 262.1341,30.0988 260.6241,30.0988 C259.1131,30.0988 257.8881,28.8748 257.8881,27.3638 C257.8881,25.8528 259.1131,24.6288 260.6241,24.6288 C262.1341,24.6288 263.3591,25.8528 263.3591,27.3638" id="Fill-109" fill="#F3F3F3"></path>
                    <path d="M95.5128,41.8782 C95.5128,42.9072 94.6788,43.7412 93.6498,43.7412 C92.6208,43.7412 91.7868,42.9072 91.7868,41.8782 C91.7868,40.8492 92.6208,40.0152 93.6498,40.0152 C94.6788,40.0152 95.5128,40.8492 95.5128,41.8782" id="Fill-111" fill="#F3F3F3"></path>
                    <path d="M48.7035,10.951 C48.7035,13.028 47.0195,14.712 44.9425,14.712 C42.8645,14.712 41.1815,13.028 41.1815,10.951 C41.1815,8.874 42.8645,7.19 44.9425,7.19 C47.0195,7.19 48.7035,8.874 48.7035,10.951" id="Fill-113" fill="#F3F3F3"></path>
                    <path d="M129.1939,31.9236 L129.1939,31.9236 C128.2899,32.5376 127.0479,32.2996 126.4339,31.3956 L118.7489,20.0696 C118.1359,19.1656 118.3729,17.9236 119.2779,17.3106 L119.2779,17.3106 C120.1819,16.6966 121.4239,16.9346 122.0369,17.8386 L129.7219,29.1636 C130.3359,30.0686 130.0979,31.3096 129.1939,31.9236" id="Fill-115" fill="#DBE0E6"></path>
                    <path d="M176.5129,17.072 L176.5129,17.072 C175.3389,17.072 174.3789,16.112 174.3789,14.938 L174.3789,2.134 C174.3789,0.961 175.3389,0 176.5129,0 C177.6869,0 178.6469,0.961 178.6469,2.134 L178.6469,14.938 C178.6469,16.112 177.6869,17.072 176.5129,17.072" id="Fill-117" fill="#DBE0E6"></path>
                    <path d="M231.202,30.4204 L231.202,30.4204 C232.289,31.0474 233.691,30.6724 234.318,29.5854 L240.205,19.3894 C240.832,18.3024 240.456,16.9004 239.37,16.2734 C238.283,15.6464 236.881,16.0214 236.254,17.1084 L230.367,27.3044 C229.74,28.3904 230.115,29.7934 231.202,30.4204" id="Fill-119" fill="#DBE0E6"></path>
                    <path d="M14.0202,150.2911 C14.0202,152.0461 12.5972,153.4691 10.8422,153.4691 C9.0862,153.4691 7.6632,152.0461 7.6632,150.2911 C7.6632,148.5361 9.0862,147.1131 10.8422,147.1131 C12.5972,147.1131 14.0202,148.5361 14.0202,150.2911" id="Fill-121" fill="#F3F3F3"></path>
                    <text id="12" font-family="HiraMaruProN-W4, Hiragino Maru Gothic ProN" font-size="15" font-weight="normal" fill="#939393">
                        <tspan x="166" y="85">12</tspan>
                    </text>
                </g>
            </g>
        </g>
    </g>
</svg>