<?xml version="1.0" encoding="UTF-8" standalone="no"?>
<svg width="439px" height="70px" viewBox="0 0 439 70" version="1.1" xmlns="http://www.w3.org/2000/svg" xmlns:xlink="http://www.w3.org/1999/xlink">
    <!-- Generator: Sketch 39 (31667) - http://www.bohemiancoding.com/sketch -->
    <title>illu how we work 3</title>
    <desc>Created with Sketch.</desc>
    <defs>
        <linearGradient x1="3.061617e-15%" y1="50%" x2="100%" y2="50%" id="linearGradient-1">
            <stop stop-color="#D83543" stop-opacity="0" offset="0%"></stop>
            <stop stop-color="#D83543" offset="100%"></stop>
        </linearGradient>
        <linearGradient x1="3.061617e-15%" y1="50%" x2="100%" y2="50%" id="linearGradient-2">
            <stop stop-color="#DCDBDC" stop-opacity="0.107987998" offset="0%"></stop>
            <stop stop-color="#CCCBCB" offset="100%"></stop>
        </linearGradient>
        <linearGradient x1="100%" y1="50%" x2="0%" y2="50%" id="linearGradient-3">
            <stop stop-color="#D83543" offset="0%"></stop>
            <stop stop-color="#F35352" offset="100%"></stop>
        </linearGradient>
        <linearGradient x1="100%" y1="50%" x2="0%" y2="50%" id="linearGradient-4">
            <stop stop-color="#C0A4A5" offset="0%"></stop>
            <stop stop-color="#F35352" offset="100%"></stop>
        </linearGradient>
        <linearGradient x1="3.061617e-15%" y1="50%" x2="100%" y2="50%" id="linearGradient-5">
            <stop stop-color="#C0A4A6" offset="0%"></stop>
            <stop stop-color="#CCCCCC" offset="100%"></stop>
        </linearGradient>
    </defs>
    <g id="Page-1" stroke="none" stroke-width="1" fill="none" fill-rule="evenodd">
        <g id="Desktop-HD-Copy" transform="translate(-910.000000, -7040.000000)">
            <g id="07" transform="translate(169.000000, 6796.000000)">
                <g id="illu-how-we-work-3" transform="translate(741.000000, 245.000000)">
                    <rect id="Rectangle-186" fill="url(#linearGradient-1)" x="0" y="61.4883721" width="63.1771218" height="1.62790698"></rect>
                    <rect id="Rectangle-186-Copy-4" fill="url(#linearGradient-2)" transform="translate(407.411439, 62.302326) scale(-1, 1) translate(-407.411439, -62.302326) " x="375.822878" y="61.4883721" width="63.1771218" height="1.62790698"></rect>
                    <ellipse id="Oval-29" stroke="#CCCBCB" fill="#EB4E4E" cx="69.251845" cy="61.8953488" rx="4.45479705" ry="4.47674419"></ellipse>
                    <ellipse id="Oval-29-Copy" stroke="#CCCBCB" fill="#EB4E4E" cx="168.877306" cy="61.8953488" rx="4.45479705" ry="4.47674419"></ellipse>
                    <ellipse id="Oval-29-Copy-2" stroke="#CCCBCB" fill="#EB4E4E" cx="267.692804" cy="61.8953488" rx="4.45479705" ry="4.47674419"></ellipse>
                    <ellipse id="Oval-29-Copy-4" stroke="#CCCBCB" fill="#FFFFFF" cx="368.128229" cy="62.7093023" rx="5.26476015" ry="5.29069767"></ellipse>
                    <rect id="Rectangle-186-Copy" fill="url(#linearGradient-3)" x="75.3265683" y="61.4883721" width="87.4760148" height="1.62790698"></rect>
                    <polygon id="Rectangle-186-Copy-5" fill="url(#linearGradient-4)" points="174.95203 61.4883721 262.428044 61.4883721 262.428044 63.1162791 256 63.1162791 174.95203 63.1162791"></polygon>
                    <rect id="Rectangle-186-Copy-2" fill="url(#linearGradient-5)" x="273.767528" y="61.4883721" width="86.6660517" height="1.62790698"></rect>
                    <g id="Page-1" transform="translate(152.000000, 0.000000)">
                        <polygon id="Fill-1" fill="#FFFFFF" points="0 0.250388186 0 46.4789916 35.7259266 46.4789916 35.7259266 11.145934 25.0613221 0.250388186"></polygon>
                        <polygon id="Stroke-2" stroke="#939393" stroke-linecap="round" stroke-linejoin="round" points="0 0.250388186 0 46.4789916 35.7259266 46.4789916 35.7259266 11.145934 25.0613221 0.250388186"></polygon>
                        <polygon id="Fill-4" fill="#EBEBEB" points="25.0588961 0.167427942 25.0823256 11.2264488 35.8090766 11.1458838"></polygon>
                        <g id="interrieur" transform="translate(4.320345, 0.098655)">
                            <polygon id="Stroke-5" stroke="#939393" stroke-linecap="round" stroke-linejoin="round" points="20.7385514 0.0687734223 20.761981 11.1277943 31.488732 11.0472293"></polygon>
                            <path d="M18.7787767,11.7344442 L0.212760356,11.7384641 C0.131504643,11.7384641 0.0657024716,11.6719686 0.0655363045,11.5902311 L0.0653701374,10.4556204 C0.0653701374,10.3737154 0.131172309,10.3073874 0.212428021,10.3073874 L18.7784443,10.3033675 C18.8597,10.3033675 18.9256684,10.3696955 18.9256684,10.4516005 L18.9258345,11.5862112 C18.9258345,11.6679488 18.8600324,11.7344442 18.7787767,11.7344442" id="Fill-7" fill="#EBEBEB"></path>
                            <path d="M25.0116548,18.2780696 L0.21304284,18.2902967 C0.131787127,18.2902967 0.0659849556,18.2239687 0.0658187885,18.1420637 L0.0653202872,17.0074529 C0.0653202872,16.9255479 0.131122459,16.8592199 0.212378171,16.8592199 L25.0109901,16.8469928 C25.0922458,16.8469928 25.158048,16.9133208 25.1582141,16.9952258 L25.1587126,18.129669 C25.1587126,18.2115741 25.0929105,18.2780696 25.0116548,18.2780696" id="Fill-9" fill="#EBEBEB"></path>
                            <path d="M23.2556839,21.5725945 L0.213125923,21.5838167 C0.131870211,21.5839842 0.0659018721,21.5176562 0.0659018721,21.4357512 L0.0654033708,20.3011404 C0.0652372037,20.2192354 0.131039375,20.1529074 0.212295088,20.1529074 L23.2550193,20.1415178 C23.336275,20.1415178 23.4020771,20.2078458 23.4022433,20.2897508 L23.4027418,21.424194 C23.4027418,21.506099 23.3369396,21.5725945 23.2556839,21.5725945" id="Fill-11" fill="#EBEBEB"></path>
                            <path d="M26.0851441,25.3065592 L0.21309269,25.3192888 C0.131836978,25.3192888 0.0658686387,25.2529608 0.0658686387,25.1710558 L0.0653701374,24.0366126 C0.0652039703,23.9547076 0.131172309,23.8882121 0.212428021,23.8882121 L26.0844794,23.8754825 C26.1657351,23.8754825 26.2315373,23.9418104 26.2317035,24.0237155 L26.232202,25.1581587 C26.232202,25.2400637 26.1663998,25.3065592 26.0851441,25.3065592" id="Fill-13" fill="#EBEBEB"></path>
                            <path d="M19.158618,29.4074383 L0.213076073,29.4166505 C0.131820361,29.416818 0.0658520219,29.35049 0.0658520219,29.268585 L0.0653535206,28.1339743 C0.0653535206,28.0520693 0.131155692,27.9857413 0.212411405,27.9857413 L19.1579534,27.9763616 C19.2392091,27.9763616 19.3050113,28.0426896 19.3051774,28.1245946 L19.3056759,29.2590378 C19.3056759,29.3409428 19.2398738,29.4074383 19.158618,29.4074383" id="Fill-15" fill="#EBEBEB"></path>
                            <path d="M26.7250203,33.9642052 L0.213059456,33.9772698 C0.131803744,33.9772698 0.0658354052,33.9109418 0.0658354052,33.8290367 L0.0653369039,32.694426 C0.0653369039,32.6126885 0.131139076,32.546193 0.212394788,32.546193 L26.7243557,32.5331284 C26.8056114,32.5331284 26.8714136,32.5994564 26.8715797,32.6813614 L26.8720782,33.8158046 C26.8720782,33.8977097 26.8062761,33.9642052 26.7250203,33.9642052" id="Fill-17" fill="#EBEBEB"></path>
                            <path d="M24.9158428,38.4664189 L0.213109306,38.4784785 C0.131853594,38.478646 0.0658852554,38.4121505 0.0658852554,38.3302455 L0.0653867541,37.1958023 C0.065220587,37.1138973 0.131188926,37.0475693 0.212278471,37.0474018 L24.9151781,37.0353421 C24.9964339,37.0353421 25.062236,37.1016701 25.0624022,37.1835752 L25.0629007,38.3180184 C25.0629007,38.3999234 24.9970985,38.4664189 24.9158428,38.4664189" id="Fill-19" fill="#EBEBEB"></path>
                        </g>
                    </g>
                    <path d="M84.1806629,34.3936345 C84.0751905,33.5925021 83.614967,32.901754 82.9181472,32.4985956 L74.7335776,27.7630147 C73.7311602,27.183011 72.459473,27.3518637 71.641274,28.1740217 L70.0291661,29.7940718 C69.6001831,30.2252403 68.9214913,30.2634032 68.4508066,29.8827105 C67.1799075,28.855049 65.9285696,27.7240597 64.7316159,26.5211371 C63.5346622,25.3182864 62.4092176,24.0608556 61.3865225,22.7836233 C61.0076962,22.3105477 61.0456003,21.6285843 61.4747267,21.1974158 L63.0867629,19.5773657 C63.9048902,18.7552797 64.0731301,17.4774714 63.4958266,16.4698994 L58.7834617,8.24500744 C58.3822081,7.54468265 57.6949181,7.0822638 56.8977132,6.97627181 C56.1004367,6.8700638 55.3170608,7.13727594 54.7484272,7.70871102 L52.3193384,10.149839 C50.6239704,11.8536315 50.5967425,14.9701704 52.2426703,18.9255005 C53.825329,22.7286832 56.7788419,26.9153668 60.5590087,30.7143011 C64.3393189,34.5131635 68.5054773,37.4812272 72.2900867,39.0716831 C74.2274965,39.8858485 75.9624883,40.2926791 77.4273504,40.2926071 C78.9383567,40.2926071 80.1618218,39.8596385 81.0227257,38.9945653 L83.4518145,36.5534373 C84.0203764,35.9820022 84.2860636,35.1947669 84.1806629,34.3936345 L84.1806629,34.3936345 Z M74.1973308,28.6990132 L82.3819005,33.4345942 C82.786665,33.6687558 83.0539286,34.0699701 83.1151197,34.5352692 C83.1665662,34.9257546 83.0656079,35.3102636 82.8367501,35.6201029 L71.959554,29.3816967 L72.4012912,28.9377832 C72.8764184,28.4603152 73.6151549,28.3621718 74.1973308,28.6990132 L74.1973308,28.6990132 Z M56.7567013,8.04706452 C57.2197909,8.10862916 57.6189665,8.37720941 57.8519802,8.78396807 L62.5643451,17.00886 C62.8996784,17.5940482 62.8019445,18.3362801 62.3268173,18.8136761 L61.9210496,19.2214428 L55.6791205,8.32680561 C55.9342748,8.1369273 56.2394424,8.03381552 56.5575792,8.03381552 C56.6235711,8.03381552 56.6901362,8.03820786 56.7567013,8.04706452 L56.7567013,8.04706452 Z M72.7047392,38.075128 C69.0461665,36.5376681 65.0027487,33.6522666 61.3190976,29.9505396 C57.6354466,26.2487405 54.7641907,22.1853302 53.2342682,18.5088051 C51.7888238,15.0354793 51.7324334,12.2671586 53.0793556,10.9135286 L54.8826321,9.10129599 L61.1339478,20.0124225 L60.7147094,20.4337262 C59.896797,21.2557402 59.8255745,22.5570223 60.5491207,23.4608344 C61.5958909,24.7681649 62.747417,26.0547579 63.971527,27.2848986 C65.1957803,28.5151114 66.4760658,29.6723106 67.7769155,30.7242379 C68.6761534,31.4513487 69.971056,31.3798473 70.7891834,30.5577613 L71.171664,30.1733964 L82.0639787,36.4205153 L80.2626368,38.2308037 C78.9157145,39.5843618 76.1609655,39.5276215 72.7047392,38.075128 Z" id="Shape" fill="#939393" transform="translate(67.615515, 23.623010) rotate(-90.000000) translate(-67.615515, -23.623010) "></path>
                    <g id="Page-1" transform="translate(247.000000, 1.000000)">
                        <polygon id="Fill-1" fill="#FFFFFF" points="0 0 0 47 36.9363745 47 36.9363745 11.3459377 25.7007802 0"></polygon>
                        <polygon id="Stroke-2" stroke="#939393" stroke-linecap="round" stroke-linejoin="round" points="0 0 0 47 36.9363745 47 36.9363745 11.3459377 25.7007802 0"></polygon>
                        <polygon id="Fill-4" fill="#EBEBEB" points="25.4347863 0.0635274725 25.348428 11.5347985 36.8184729 11.5347985"></polygon>
                        <g id="Group-41" transform="translate(4.161845, 0.000000)">
                            <polygon id="Stroke-5" stroke="#939393" stroke-linecap="round" stroke-linejoin="round" points="21.2729413 0.0635274725 21.186583 11.5347985 32.6566279 11.5347985"></polygon>
                            <path d="M19.5048682,12.0550985 L0.27194189,12.0590582 C0.187144297,12.0592304 0.118300445,11.9908824 0.118300445,11.9066956 L0.118127034,10.751322 C0.118127034,10.6671352 0.186797477,10.5987872 0.271595069,10.5987872 L19.5045213,10.5948275 C19.5893189,10.5948275 19.6581628,10.6630033 19.6581628,10.7471901 L19.6583362,11.9027359 C19.6583362,11.9867505 19.5896657,12.0550985 19.5048682,12.0550985" id="Fill-7" fill="#06BD91"></path>
                            <path d="M25.9624042,18.7245245 L0.272202005,18.7369201 C0.187404413,18.7369201 0.11856056,18.6687443 0.11856056,18.5845575 L0.118040329,17.4291839 C0.118040329,17.3449971 0.186710772,17.2766491 0.271508364,17.2766491 L25.9617106,17.2642535 C26.0465082,17.2642535 26.1151786,17.3324293 26.115352,17.4166161 L26.1158723,18.5719897 C26.1158723,18.6561766 26.0472018,18.7245245 25.9624042,18.7245245" id="Fill-9" fill="#EBEBEB"></path>
                            <path d="M24.1431404,22.0863674 L0.272184664,22.0979022 C0.187387072,22.0979022 0.118543219,22.0297264 0.118543219,21.9455396 L0.118022988,20.7901659 C0.118022988,20.7059791 0.186693431,20.6376311 0.271491023,20.6376311 L24.1424467,20.6260963 C24.2272443,20.6260963 24.2959148,20.6942722 24.2960882,20.778459 L24.2966084,21.9338326 C24.2966084,22.0180194 24.227938,22.0863674 24.1431404,22.0863674" id="Fill-11" fill="#EBEBEB"></path>
                            <path d="M27.0745879,25.896604 L0.272132641,25.9095161 C0.187335049,25.9095161 0.118664606,25.8413403 0.118491196,25.7571535 L0.117970965,24.6017799 C0.117970965,24.517593 0.186641408,24.4492451 0.271439,24.4492451 L27.0738943,24.436333 C27.1586919,24.436333 27.2273623,24.5045088 27.2275357,24.5886956 L27.228056,25.7440692 C27.228056,25.828256 27.1593855,25.896604 27.0745879,25.896604" id="Fill-13" fill="#EBEBEB"></path>
                            <path d="M19.8983879,30.0812568 L0.272167323,30.0907256 C0.187369731,30.0907256 0.118525878,30.0225498 0.118525878,29.938363 L0.118005647,28.7829894 C0.118005647,28.6988026 0.18667609,28.6304546 0.271473682,28.6304546 L19.8976943,28.6209857 C19.9824919,28.6209857 20.0511623,28.6891615 20.0513357,28.7733484 L20.051856,29.928722 C20.051856,30.0129088 19.9831855,30.0812568 19.8983879,30.0812568" id="Fill-15" fill="#EBEBEB"></path>
                            <path d="M27.7375352,34.731089 L0.272132641,34.7443454 C0.187335049,34.7443454 0.118664606,34.6761696 0.118491196,34.5919828 L0.117970965,33.4366092 C0.117970965,33.3524223 0.186641408,33.2840744 0.271439,33.2840744 L27.7368415,33.2708179 C27.8216391,33.2708179 27.8903096,33.3389938 27.890483,33.4231806 L27.8910032,34.5785542 C27.8910032,34.662741 27.8223328,34.731089 27.7375352,34.731089" id="Fill-17" fill="#EBEBEB"></path>
                            <path d="M25.8631442,39.325296 L0.272132641,39.3376916 C0.187335049,39.3376916 0.118664606,39.2695158 0.118491196,39.1853289 L0.117970965,38.0297832 C0.117970965,37.9455963 0.186641408,37.8774205 0.271439,37.8774205 L25.8624506,37.8650249 C25.9472482,37.8650249 26.0159186,37.9332007 26.016092,38.0173875 L26.0166123,39.1727612 C26.0166123,39.256948 25.9479418,39.325296 25.8631442,39.325296" id="Fill-19" fill="#EBEBEB"></path>
                            <path d="M7.33218248,43.7264586 L0.272132641,43.7299018 C0.187335049,43.7299018 0.118664606,43.661726 0.118664606,43.5775392 L0.117970965,42.4219934 C0.117970965,42.3378066 0.186641408,42.2696308 0.271439,42.2696308 L7.33148883,42.2661875 C7.41628643,42.2661875 7.48495687,42.3343634 7.48513028,42.4185502 L7.48565051,43.5739238 C7.48565051,43.6581106 7.41698007,43.7264586 7.33218248,43.7264586" id="Fill-21" fill="#EBEBEB"></path>
                            <path d="M27.5605354,25.8629465 L10.7385312,25.8710381 C10.6537336,25.8710381 10.5850632,25.8028623 10.5850632,25.7186755 L10.5843696,24.5633018 C10.5843696,24.479115 10.65304,24.410767 10.7378376,24.410767 L27.5598417,24.4026755 C27.6446393,24.4026755 27.7133098,24.4708513 27.7134832,24.5550381 L27.7140034,25.7104117 C27.7140034,25.7945985 27.645333,25.8629465 27.5605354,25.8629465" id="Fill-23" fill="#06BD91"></path>
                            <polygon id="Fill-25" fill="#FFF3EC" points="23.815239 40.1957945 23.1868004 44.811952 27.3250616 42.6623476"></polygon>
                            <polygon id="Stroke-27" stroke="#7C7C7C" stroke-linecap="round" stroke-linejoin="round" points="23.815239 40.1957945 23.1868004 44.811952 27.3250616 42.6623476"></polygon>
                            <path d="M23.7525686,43.9656593 L26.4676522,42.608685 L25.546844,41.9935531 C25.546844,41.9935531 25.5796185,42.7982344 23.7525686,43.9656593" id="Fill-29" fill="#EBDED6"></path>
                            <path d="M23.815239,40.1957945 L33.4032629,25.922256 C33.8610658,25.2408421 34.6029147,24.7835821 35.2901394,25.2365381 L36.7958602,26.1066407 C37.4756282,26.5544319 37.9197318,27.3381095 37.4810039,28.0209007 L27.4669112,42.633941 L23.815239,40.1957945 Z" id="Fill-31" fill="#EBEBEB"></path>
                            <path d="M23.815239,40.1957945 L33.4032629,25.922256 C33.8610658,25.2408421 34.6029147,24.7835821 35.2901394,25.2365381 L36.7958602,26.1066407 C37.4756282,26.5544319 37.9197318,27.3381095 37.4810039,28.0209007 L27.4669112,42.633941 L23.815239,40.1957945 L23.815239,40.1957945 Z" id="Stroke-33" stroke="#7C7C7C" stroke-linecap="round" stroke-linejoin="round"></path>
                            <path d="M27.3235356,41.929974 L34.6220245,31.3790766 L33.4286154,30.5928165 C32.662836,33.7631645 27.3235356,41.929974 27.3235356,41.929974" id="Fill-35" fill="#D1D1D1"></path>
                            <path d="M31.3755773,28.9408784 L35.3598503,31.3774755 L37.6514662,28.1330982 C37.9901363,27.2989773 37.5042409,26.6953802 36.8244729,26.2474168 L35.4751681,25.5088454 C34.78777,25.0558894 33.8608924,25.2409626 33.4032629,25.9222044 L31.3755773,28.9408784 Z" id="Fill-37" fill="#EB4E4E"></path>
                            <path d="M31.3755773,28.9408784 L35.3598503,31.3774755 L37.6514662,28.1330982 C37.9901363,27.2989773 37.5042409,26.6953802 36.8244729,26.2474168 L35.4751681,25.5088454 C34.78777,25.0558894 33.8608924,25.2409626 33.4032629,25.9222044 L31.3755773,28.9408784 L31.3755773,28.9408784 Z" id="Stroke-39" stroke="#7C7C7C" stroke-linecap="round" stroke-linejoin="round"></path>
                        </g>
                    </g>
                    <g id="Page-1" transform="translate(341.000000, 1.000000)">
                        <path d="M28.6610324,1.80032742 L15.5578563,1.80032742 C14.2405606,1.80032742 13.0776592,2.76989194 13.0776592,4.08267016 L13.0776592,10.5099202 C13.0776592,11.8226984 14.2405606,12.981779 15.5578563,12.981779 L17.9349972,12.981779 L18.1163915,16.9616177 L21.3487859,12.981779 L28.6610324,12.981779 C29.978138,12.981779 30.9508986,11.8226984 30.9508986,10.5099202 L30.9508986,4.08267016 C30.9508986,2.76989194 29.978138,1.80032742 28.6610324,1.80032742" id="Fill-1" fill="#FF7474"></path>
                        <path d="M28.6610324,1.80032742 L15.5578563,1.80032742 C14.2405606,1.80032742 13.0776592,2.76989194 13.0776592,4.08267016 L13.0776592,10.5099202 C13.0776592,11.8226984 14.2405606,12.981779 15.5578563,12.981779 L17.9349972,12.981779 L18.1163915,16.9616177 L21.3487859,12.981779 L28.6610324,12.981779 C29.978138,12.981779 30.9508986,11.8226984 30.9508986,10.5099202 L30.9508986,4.08267016 C30.9508986,2.76989194 29.978138,1.80032742 28.6610324,1.80032742 L28.6610324,1.80032742 Z" id="Stroke-3" stroke="#939393" stroke-linecap="round" stroke-linejoin="round"></path>
                        <path d="M28.8676394,0.0946822581 L41.9708155,0.0946822581 C43.2881113,0.0946822581 44.4510127,1.06424677 44.4510127,2.377025 L44.4510127,8.804275 C44.4510127,10.1170532 43.2881113,11.2761339 41.9708155,11.2761339 L39.5936746,11.2761339 L39.4122803,15.2559726 L36.1798859,11.2761339 L28.8676394,11.2761339 C27.5505338,11.2761339 26.5777732,10.1170532 26.5777732,8.804275 L26.5777732,2.377025 C26.5777732,1.06424677 27.5505338,0.0946822581 28.8676394,0.0946822581" id="Fill-5" fill="#4BDDAC"></path>
                        <path d="M28.8676394,0.0946822581 L41.9708155,0.0946822581 C43.2881113,0.0946822581 44.4510127,1.06424677 44.4510127,2.377025 L44.4510127,8.804275 C44.4510127,10.1170532 43.2881113,11.2761339 41.9708155,11.2761339 L39.5936746,11.2761339 L39.4122803,15.2559726 L36.1798859,11.2761339 L28.8676394,11.2761339 C27.5505338,11.2761339 26.5777732,10.1170532 26.5777732,8.804275 L26.5777732,2.377025 C26.5777732,1.06424677 27.5505338,0.0946822581 28.8676394,0.0946822581 L28.8676394,0.0946822581 Z" id="Stroke-7" stroke="#939393" stroke-linecap="round" stroke-linejoin="round"></path>
                        <g id="Group-12" transform="translate(35.556338, 16.961694)">
                            <path d="M6.67054014,0.0946822581 C6.67054014,0.0946822581 -1.46273451,0.885533065 0.677490845,7.79434355 C0.677490845,7.79434355 -0.411445775,7.80514597 0.204420423,9.60611774 C0.204420423,9.60611774 1.16577254,10.8499121 1.46600493,10.3609605 C1.46600493,10.3609605 3.19077254,14.3082024 5.33213873,14.8896379 C5.94838521,15.1344927 6.79489225,15.2866742 7.74160352,14.9387226 C9.91434296,14.5951298 11.703188,10.3609605 11.703188,10.3609605 C11.9937232,10.8499121 12.9233218,9.60611774 12.9233218,9.60611774 C13.518843,7.80514597 12.465843,7.79434355 12.465843,7.79434355 C14.5355261,0.885533065 6.67054014,0.0946822581 6.67054014,0.0946822581" id="Fill-9" fill="#FFD5B8"></path>
                            <path d="M6.67054014,0.0946822581 C6.67054014,0.0946822581 -1.46273451,0.885533065 0.677490845,7.79434355 C0.677490845,7.79434355 -0.411445775,7.80514597 0.204420423,9.60611774 C0.204420423,9.60611774 1.16577254,10.8499121 1.46600493,10.3609605 C1.46600493,10.3609605 3.19077254,14.3082024 5.33213873,14.8896379 C5.94838521,15.1344927 6.79489225,15.2866742 7.74160352,14.9387226 C9.91434296,14.5951298 11.703188,10.3609605 11.703188,10.3609605 C11.9937232,10.8499121 12.9233218,9.60611774 12.9233218,9.60611774 C13.518843,7.80514597 12.465843,7.79434355 12.465843,7.79434355 C14.5355261,0.885533065 6.67054014,0.0946822581 6.67054014,0.0946822581" id="Stroke-11" stroke="#939393" stroke-linecap="round" stroke-linejoin="round"></path>
                        </g>
                        <path d="M53.8510437,44.9481657 L53.6491141,39.4241496 C53.6015789,34.1370286 50.3929521,33.4267222 50.3929521,33.4267222 L46.1621282,32.1641657 C45.3064944,35.3207464 41.6938183,36.267569 41.6938183,36.267569 C41.6938183,36.267569 38.6063113,35.3207464 37.8750296,32.1641657 L34.2595014,33.4267222 C34.2595014,33.4267222 31.5172901,34.1370286 31.4766,39.4241496 L31.3039521,44.9481657 C31.3039521,44.9481657 30.9331775,47.1577343 33.0051423,46.8421899 L41.6938183,46.9998673 L51.8604592,46.8421899 C54.2847549,47.1577343 53.8510437,44.9481657 53.8510437,44.9481657" id="Fill-13" fill="#EB4E4E"></path>
                        <path d="M53.8510437,44.9481657 L53.6491141,39.4241496 C53.6015789,34.1370286 50.3929521,33.4267222 50.3929521,33.4267222 L46.1621282,32.1641657 C45.3064944,35.3207464 41.6938183,36.267569 41.6938183,36.267569 C41.6938183,36.267569 38.6063113,35.3207464 37.8750296,32.1641657 L34.2595014,33.4267222 C34.2595014,33.4267222 31.5172901,34.1370286 31.4766,39.4241496 L31.3039521,44.9481657 C31.3039521,44.9481657 30.9331775,47.1577343 33.0051423,46.8421899 L41.6938183,46.9998673 L51.8604592,46.8421899 C54.2847549,47.1577343 53.8510437,44.9481657 53.8510437,44.9481657 L53.8510437,44.9481657 Z" id="Stroke-15" stroke="#939393"></path>
                        <path d="M46.4474345,32.6376149 L48.7291246,33.1110262 C48.7291246,33.1110262 51.5184908,33.836494 52.5319415,35.7941956 C52.5319415,35.7941956 53.3058148,37.0561835 53.2925049,45.7373488 C53.2925049,45.7373488 53.5149697,34.5782601 46.4474345,32.6376149" id="Fill-17" fill="#FF7373"></path>
                        <g id="Group-22" transform="translate(4.373239, 16.961694)">
                            <path d="M6.67054014,0.0946822581 C6.67054014,0.0946822581 -1.46273451,0.885533065 0.677490845,7.79434355 C0.677490845,7.79434355 -0.411445775,7.80514597 0.204420423,9.60611774 C0.204420423,9.60611774 1.16577254,10.8499121 1.46600493,10.3609605 C1.46600493,10.3609605 3.19077254,14.3082024 5.33213873,14.8896379 C5.94838521,15.1344927 6.79489225,15.2866742 7.74160352,14.9387226 C9.91434296,14.5951298 11.703188,10.3609605 11.703188,10.3609605 C11.9937232,10.8499121 12.9233218,9.60611774 12.9233218,9.60611774 C13.518843,7.80514597 12.465843,7.79434355 12.465843,7.79434355 C14.5355261,0.885533065 6.67054014,0.0946822581 6.67054014,0.0946822581" id="Fill-19" fill="#FFD5B8"></path>
                            <path d="M6.67054014,0.0946822581 C6.67054014,0.0946822581 -1.46273451,0.885533065 0.677490845,7.79434355 C0.677490845,7.79434355 -0.411445775,7.80514597 0.204420423,9.60611774 C0.204420423,9.60611774 1.16577254,10.8499121 1.46600493,10.3609605 C1.46600493,10.3609605 3.19077254,14.3082024 5.33213873,14.8896379 C5.94838521,15.1344927 6.79489225,15.2866742 7.74160352,14.9387226 C9.91434296,14.5951298 11.703188,10.3609605 11.703188,10.3609605 C11.9937232,10.8499121 12.9233218,9.60611774 12.9233218,9.60611774 C13.518843,7.80514597 12.465843,7.79434355 12.465843,7.79434355 C14.5355261,0.885533065 6.67054014,0.0946822581 6.67054014,0.0946822581" id="Stroke-21" stroke="#939393" stroke-linecap="round" stroke-linejoin="round"></path>
                        </g>
                        <path d="M22.6679451,44.9481657 L22.4660155,39.4241496 C22.4184803,34.1370286 19.2098535,33.4267222 19.2098535,33.4267222 L14.9790296,32.1641657 C14.1233958,35.3207464 10.5107197,36.267569 10.5107197,36.267569 C10.5107197,36.267569 7.42321268,35.3207464 6.69193099,32.1641657 L3.07640282,33.4267222 C3.07640282,33.4267222 0.334191549,34.1370286 0.293501408,39.4241496 L0.120853521,44.9481657 C0.120853521,44.9481657 -0.249921127,47.1577343 1.82204366,46.8421899 L10.5107197,46.9998673 L20.6773606,46.8421899 C23.1016563,47.1577343 22.6679451,44.9481657 22.6679451,44.9481657" id="Fill-23" fill="#2ECA9C"></path>
                        <path d="M22.6679451,44.9481657 L22.4660155,39.4241496 C22.4184803,34.1370286 19.2098535,33.4267222 19.2098535,33.4267222 L14.9790296,32.1641657 C14.1233958,35.3207464 10.5107197,36.267569 10.5107197,36.267569 C10.5107197,36.267569 7.42321268,35.3207464 6.69193099,32.1641657 L3.07640282,33.4267222 C3.07640282,33.4267222 0.334191549,34.1370286 0.293501408,39.4241496 L0.120853521,44.9481657 C0.120853521,44.9481657 -0.249921127,47.1577343 1.82204366,46.8421899 L10.5107197,46.9998673 L20.6773606,46.8421899 C23.1016563,47.1577343 22.6679451,44.9481657 22.6679451,44.9481657 L22.6679451,44.9481657 Z" id="Stroke-25" stroke="#939393"></path>
                        <path d="M15.2643359,32.6376149 L17.5460261,33.1110262 C17.5460261,33.1110262 20.3353923,33.836494 21.348843,35.7941956 C21.348843,35.7941956 22.1227162,37.0561835 22.1094063,45.7373488 C22.1094063,45.7373488 22.3318711,34.5782601 15.2643359,32.6376149" id="Fill-27" fill="#4BDDAC"></path>
                    </g>
                </g>
            </g>
        </g>
    </g>
</svg>