<?xml version="1.0" encoding="utf-8"?>
<!-- Generator: Adobe Illustrator 19.2.1, SVG Export Plug-In . SVG Version: 6.00 Build 0)  -->
<svg version="1.1" id="Calque_1" xmlns="http://www.w3.org/2000/svg" xmlns:xlink="http://www.w3.org/1999/xlink" x="0px" y="0px"
	 viewBox="0 0 1782.7 441.2" style="enable-background:new 0 0 1782.7 441.2;" xml:space="preserve">
<style type="text/css">
	.st0{fill:#11314A;}
	.st1{fill:#003A79;}
	.st2{fill:#CD0538;}
	.st3{fill:none;stroke:#CD0538;stroke-width:10;stroke-miterlimit:10;}
	.st4{font-family:'AGaramondPro-Bold';}
	.st5{font-size:202px;}
	.st6{font-family:'AGaramondPro-Regular';}
	.st7{font-size:197px;}
</style>
<g id="XMLID_1_">
	<g>
		<path class="st0" d="M144.5,339c1.6,4.1,5.4,12.9,11.4,21.1c-6.7,4.3-69.8,51-58.1,36.7C111.7,379.3,130.6,356.4,144.5,339z"/>
		<path class="st0" d="M118.6,281.7c0.8,7,5.9,16.5,10.5,20.8c-8,4.3-90.7,52.5-74.9,38.2C73,323.3,99.7,299.2,118.6,281.7z"/>
		<path class="st0" d="M234.2,153.5c8.2,1.1,6,5.4,2.3,15.7c-3.7,10.3-7.2,12.1-14.2,11.2c-3.5-0.4-4.8-1.2-2.8-5.4
			c1.8-3.6,3.8-9.8,4.8-15.8c0.6-3.8-0.3-5.6,3.4-5.9C229.6,153.1,232.1,153.2,234.2,153.5z"/>
		<path class="st0" d="M154.1,232.5C154.1,232.5,154.1,232.5,154.1,232.5c0.1-0.1,0.2-0.1,0.3-0.2c-12.4,10-17.8,47-11.8,38
			c2.9-4.4,4.9-6,6.2-5.5c4.3,1.7,1.7,6,0.4,15.5c-0.5,4-1.9,8.3-2.7,12.6c-0.9,4.6,3.7,2,5.9,0.8c2.1-1.2,3.1-2.6,5.5-3.8
			c4-1.9,7.5-0.7,10.8-0.7c2.6,0,10.2,1.1,11.6,3.8c1.9,3.6-7.1,4.3-10.9,7.2c-11.6,8.5,4.8,4.1,9.7,4.4c3.8,0.2,6.9,0.5,7.1,2.4
			c0.2,1.6-7.9-0.2-14.1,4.6c-1,0.8-2.7,3.2-3.7,4.2c-6.1,6.2-5.6,11.2,1.7,5.9c2.1-1.5,6.2-3.5,8.3-5.6c3.6-3.6,7.2-1.8,6.5,0.8
			c-0.8,2.9-5.8,4.3-11.4,10.2c-2.9,3-8.2,9.7-8.1,14.9c0,2.7,0.4,5.9,5.9,5.9c6.8,0,11.1-5.8,24.6-10.5c7.8-2.7,16.8-5.5,26.1-7.8
			c7.3-1.8,15-6.6,22.2-7.6c14.8-2,31.2-1.1,40.2,3.7c5.3,2.8-24.3,15.5-40.4,37.6c-8.9,12.2-41.5,83.6-54,71.1
			c-3.4-3.4,7.3-29.4,4.5-41.4c-1-4.2-8.3-9.1-18.1-14.2c-12.7-6.6-28.9-30.4-32.8-56.8c-2.6-17.4-31.1-24.5-18.6-57.2
			c2-5.3,4.7-20.4,10.5-31.1c4.2-7.7,13.1-6,14.7-10.2c1.6-4.1-0.2-20.7,0.9-16.8c3,11,95.9-19.6,95.9,14
			c0,12.2,17.8,14.7,35.2,18.2c4.2,0.8,9.3,1.6,14.5,2.4V280c-9.4-3-19.7-11.3-25.1-17.9c-7-8.7-14.8-21.8-30.1-24.2
			s-22.5-18.6-49.2-16.2c-20.8,1.9-26.5,2.3-38,10.5C155.3,231.6,154.4,232.2,154.1,232.5C154.1,232.5,154.1,232.5,154.1,232.5z"/>
		<path class="st0" d="M296.8,215.3v4.5C296,218.5,296,216.7,296.8,215.3z"/>
		<path class="st0" d="M217.3,150.7c1.4,0.6,2,2.5,1.3,6.7l-1.3,7.3c-1.1,6.2-3.8,14-5.7,14.3c-8.2,1.3-9.7-0.2-9.4-5.3
			s2.5-13.7,1.6-21C203.5,149.9,214.1,149.4,217.3,150.7z"/>
		<path class="st0" d="M161.4,180.1c0.2,6.1-0.5,11.6-2.3,12c-3.2,0.6-8.3-8.1-8.4-12.3c-0.2-9.3,10.2-18.8,10.5-6.8L161.4,180.1z"
			/>
		<path class="st0" d="M296.8,293.1v33.2c-6.8-6.5-15.3-18-15.3-23.1C281.6,290.3,288.9,292.7,296.8,293.1z"/>
		<path class="st0" d="M197.5,163.9c0.2,6-0.9,13.9-2.7,14.5c-14.9,5.5-7.4-8.2-11.8-21.5c-0.8-2.6,8.5-6.8,11.8-6.2
			c1.5,0.3,2.4,1.9,2.5,6.1L197.5,163.9z"/>
		<path class="st0" d="M282.3,182.5c5,2.8,6.3,4.2,1.1,13.1c-3.1,5.4-5.4,7.4-8.6,8.3c-3.2,0.9-9.7-2.9-7.8-6c3.1-5.2,6-9,7.6-11.9
			C275.5,184.2,277.5,179.9,282.3,182.5z"/>
		<path class="st0" d="M177.9,170c0.2,6-0.7,11.8-2.4,12.9c-7.3,4.7-8.9-10.7-10.2-14.6c-1.3-3.7,3.5-8.6,6.2-10.6
			c3.2-2.4,6-1.4,6.2,5.1L177.9,170z"/>
		<path class="st0" d="M137.8,210.8c0.3,7.4-8.1,5.4-8.2,0.8c-0.2-6.5,7.6-14.3,8-5.8L137.8,210.8z"/>
		<path class="st0" d="M296.8,196c3.6,2.8,3,7.2,0.6,10c-0.2,0.2-0.4,0.5-0.6,0.7V196z"/>
		<path class="st1" d="M101.6,282.5l-5.7-17.6l15-11l-18.5,0l-5.8-17.7l-5.7,17.6l-18.6,0.1l15,10.9l-5.7,17.7l15-10.9L101.6,282.5z
			 M111.2,277.3c-6.8,6.3-20.3,18.6-33.8,30.9c-10.4,9.5-20.8,18.9-33.8,30.9h0c-6.8,6.2-7.3,11.8-2.7,16.8c3.3,3.7,16-0.5,31-7.4
			l5.3,3.8L71.6,370l15-10.9l15.1,10.9l-5.7-17.6l15-11l-18.5,0l-0.9-2.7c12.3-6.5,24.3-13.3,32.7-18.1l4.3-2.4
			c2.9,3.5,5.4,6.8,5.9,9.8c0.6,3.8,1.3,7.5,2.3,11.1c-7.8,9.7-15.8,19.6-23.8,29.4c-8.9,11-17.8,22-24.5,30.3l0,0
			c-5.7,7-5.3,12.5,0,16.9v0c2.8,2.3,18.6-4.3,34.7-12.1l-2.9,8.9l14.9-10.9l15.1,10.9l-5.7-17.6l15-11c0.7,0,4.2,3.5,7,5.9
			c2.5,2.1,5,3.8,7.5,5.1l0,0c4.6,2.4,8.6,4.7,11.5,6.9c1.5,1.1,2.2,1,2.3,1.3c1,4.5-1.2,14.2-3,22.4c-0.8,3.5-1.6,6.8-2,9.9H0.3
			v-87.6l9.1-6.7l-9.1,0v-80.8l9.1-6.7l-9.1,0v-61c8,4.3,19,9.1,31.2,13.8l-0.7,2.3l-18.6,0.1l15,10.9l-5.7,17.7l14.9-10.9
			l15.1,10.9l-5.7-17.6l7.3-5.3c16.4,5.9,33,11.4,45.7,15.5c10.5,3.5,18.2,6.1,19.9,6.7h0l1.6,0.6l0,0.1l0.1-0.1l2.5,0.9
			c-2.4,6.3-4.1,12.7-5.5,17.8c-0.8,2.9-1.4,5.4-2,6.8v0c-1.9,5-3.1,9.6-3.7,13.8L111.2,277.3z M45.7,307.6l15-11l-18.5,0l-5.8-17.7
			l-5.7,17.6l-18.6,0.1l15,10.9l-5.7,17.7l14.9-10.9l15.1,10.9L45.7,307.6z M45.7,395l15-11l-18.5,0l-5.8-17.7L30.7,384L12.1,384
			l15,10.9l-5.7,17.7l14.9-10.9l15.1,10.9L45.7,395z"/>
		<path class="st2" d="M262.5,124.7l-1.1,2.3c-3,5.9-5.1,10.2-6,11.9l0,0.2h0l-3,6c-2.3-2.4-6.1-4-11.9-4.7h0l-2.9-11.1l-1.2-4.5
			H262.5z"/>
		<path class="st0" d="M125,198.6c-2.3,7-3.5,21.4-2.5,28.6C110.8,223-21.4,180.8,7.7,184.1C42.9,187.7,89.8,195.1,125,198.6z"/>
		<path class="st0" d="M230.2,240.9c2.2,2.2-10.1,8-11.5,8.5c-8.4,2.9-7.6,2.2-8.2,1c-1-2.1-6.3-3.1-8.4-3.2
			c-2.9-0.1-6.2,1-10.1,4.5c-4.6,4.1,2.4,9.2-5,12.1c-4.7,1.9-10.4-1.7-15.5-6.6c-6.8-6.4-6.2-11.9-3-16c4.7-6.1,17.2-9.5,27.1-7.4
			C208.6,236.5,225.1,235.8,230.2,240.9z"/>
		<path class="st1" d="M189.5,134l0.2,4.5c-2.4,0.8-4.9,2-7,3.3l0,0c-0.5,0.3-1,0.7-1.5,1l-7.8-7c-13.7-12.4-33.8-30.9-53.9-49.4
			c-18.3-16.9-36.6-33.8-54-49.4l0,0c-7.5-6.9-13.5-7.3-18.2-2.2c-0.2,0.3-0.4,0.6-0.6,1l-4.7,0l-5.8-17.7l-5.7,17.6l-18.6,0.1
			l15,10.9l-5.7,17.7l14.9-10.9l15.1,10.9l-5.7-17.6l3-2.2c0.8,2,1.9,4.1,3.2,6.5c0,0.2,0,0.5,0.3,0.7l0.2,0.2
			c4.2,7.7,10.6,17.3,18,27.7l-8,0l15,10.8l-5.7,17.7L84.4,99c11.8,15.7,24.5,31.7,34.7,44.7c9.5,12.1,16.7,21.2,19.1,24.4l0.1,0.1
			v0l2.9,3.9c-1.8,0.8-3.4,1.9-4.9,3.4c-2.7,2.7-5.2,7.4-6.4,12.6l-4.2-0.4c-8.6-0.9-17.9-2-27.5-3.2l-2.2-6.9l15-11l-18.5,0
			l-5.8-17.7l-5.7,17.6l-18.6,0.1l15,10.9l-1.3,4.2l-11.4-1.5c-21.6-2.9-43.2-5.8-61.7-7.6v0c-0.4,0-0.8-0.1-1.2-0.1l7.8-5.7l-9.1,0
			v-80l9.1-6.7l-9.1,0V0.3h181.5c-1.4,26.3,2.5,72.3,5.3,103.9C188.3,119.5,189.4,131.3,189.5,134L189.5,134L189.5,134z M144.5,46.8
			l15-11l-18.5,0l-5.8-17.7l-5.7,17.6l-18.6,0.1l15,10.9l-5.7,17.7l14.9-10.9l15.1,10.9L144.5,46.8z M45.7,133.4l15-11l-18.5,0
			l-5.8-17.7l-5.7,17.6l-18.6,0.1l15,10.8L21.4,151l14.9-10.9L51.4,151L45.7,133.4z"/>
		<path class="st0" d="M148.2,195.7c0.5,16.6-9.3,6.1-9.4-0.5c-0.2-9.3,8.8-18.8,9.2-6.7L148.2,195.7z"/>
		<path class="st0" d="M165.2,147c-4,2-14.8,10.4-19.7,17.9C137.2,153.5,37.8,30.2,62.2,52.7C91.9,79.5,135.5,120.2,165.2,147z"/>
		<path class="st0" d="M223.4,135.9c-4.4-0.5-19.9-0.1-27,1.8C195.7,123.8,181-27,189,4.6C199,42.7,213.4,97.8,223.4,135.9z"/>
		<path class="st0" d="M296.8,402.5v33.2h-16.3C286.4,431.5,287.5,408.4,296.8,402.5z"/>
		<path class="st0" d="M296.8,71.1v38.5c-5.6,19.9-11.1,39.6-14.7,54.7c-5.8-6.9-17.4-14.8-24-17.2
			C261.3,141.1,281.6,99.8,296.8,71.1z"/>
		<path class="st0" d="M267.8,171.3c5,2.8,6.2,4.6,1,13.5c-3.1,5.4-5.3,8.7-8.5,9.6c-3.2,0.9-10.6-1.2-7.9-5.2
			c3.5-5.3,6.1-10.7,7.6-14.1C261.4,171.9,263.1,168.7,267.8,171.3z"/>
		<path class="st0" d="M252,161.6c6,2.1,7.2,4.4,1.8,14.1c-3.3,5.8-5.4,10.2-8.7,11.2c-1.6,0.5-9.5-1-10.3-2.4
			c-0.4-0.7-0.1-1.8,1.2-3.6c3.9-5.5,6.3-11.5,7.9-15.1C245.3,162.3,246.4,159.7,252,161.6z"/>
		<path class="st0" d="M296.8,196v10.7c-1.9,2.4-4.1,5.7-7.5,6.7c-3.2,1-10.8-3-8.3-5.9c3.6-4.2,5.6-5.9,7.3-8.8
			c2.3-3.8,3.8-5.6,7.3-3.6C296,195.4,296.5,195.7,296.8,196z"/>
		<path class="st2" d="M203.7,0.3h93.1v59.3c-0.5,1-1.1,1.9-1.7,2.9h-75.1l-0.2-0.6l-0.2-0.8l-6-22.8l-0.2-0.9L210.8,27l0-0.1
			l-2.5-9.6l-0.2-0.9l-1.1-4.2l-0.3-1.1l-0.3-1.1l-2.5-9.4l0-0.1L203.7,0.3z"/>
	</g>
	<g>
		<polyline class="st3" points="296.8,435.7 296.8,435.6 296.8,402.5 296.8,326.3 296.8,293.1 296.8,280 296.8,241.3 296.8,219.8 
			296.8,215.3 296.8,206.7 296.8,196 296.8,109.6 296.8,71.1 296.8,59.6 296.8,0.3 		"/>
	</g>
</g>
<text transform="matrix(1 0 0 1 350.9216 198.8885)" class="st2 st4 st5">IMMIGRATION</text>
<text transform="matrix(1 0 0 1 347.9216 382.4346)" class="st0 st6 st7">BUSINESS PLAN</text>
</svg>
